<svg width="41" height="8" fill="none" xmlns="http://www.w3.org/2000/svg"><path d="M14.862 6.55933c-.2756.09296-.4575.11559-.6741.11559-.4478 0-.6959-.17702-.6959-.63613 0-.47851.3152-.63856.9344-.63856.1511 0 .2998.02183.3693.04608v.34272c0 .36939.0203.61188.0663.7703zm1.5916.54803c-.3306-.50195-.4171-.79779-.4171-1.43069V4.39148c0-.69191-.0808-.94167-.2635-1.19386-.2546-.35727-.679-.51246-1.459-.51246-.5521 0-1.088.05981-1.6069.19237l.1875.91338c.3508-.04931.7186-.09134.9781-.09134.8285 0 .923.11963.923.74121v.23198c-.1843-.0493-.3912-.08487-.6312-.08487-1.2472 0-1.906.61027-1.906 1.62064 0 .94733.704 1.46383 1.5616 1.46383.3201 0 .6547-.059.9199-.16732.16-.06951.2295-.11073.4365-.24491.1244.18106.3742.36616.476.40092l.8011-.55369zm12.337-.54803c-.2772.09296-.4558.11559-.6741.11559-.4494 0-.7008-.17702-.7008-.63613 0-.47851.3193-.63856.9401-.63856.1511 0 .3007.02183.3686.04608v.34272c0 .36939.0194.61188.0662.7703zm1.5932.54803c-.333-.50195-.4179-.79779-.4179-1.43069V4.39148c0-.69191-.0824-.94167-.2667-1.19386-.2514-.35727-.6766-.51246-1.459-.51246-.5513 0-1.0904.05981-1.6093.19237l.1851.91338c.3516-.04931.7202-.09134.9869-.09134.8237 0 .9215.11963.9215.74121v.23198c-.1843-.0493-.3896-.08487-.6345-.08487-1.2489 0-1.9101.61027-1.9101 1.62064 0 .94733.7057 1.46383 1.5673 1.46383.3242 0 .6556-.059.9183-.16732.1624-.06951.2295-.11073.4364-.24491.1261.18106.3759.36616.4786.40092l.8034-.55369zm9.7109.4575s-.6838-1.45736-.8511-1.78877c-.1884-.37343-.363-.63128-.7477-.72423v-.02102c.2578-.04931.4631-.20531.6879-.6822.2125-.46478.2756-.56501.4009-.67574.1228-.10993.291-.07032.291-.07032l.063-.85923c-.1786-.02424-.3767-.02505-.5812-.01374-.3394.02021-.5148.11801-.6822.28614-.1309.12852-.2198.32089-.3298.54156-.1163.24087-.2085.43487-.3297.67978-.1205.25138-.1771.36454-.5012.36454h-.211V.795352h-1.2488V7.56486h1.2488V5.61847l.1706-.00323c.3581 0 .4211.08972.6103.4672.2214.45022.6458 1.48242.6458 1.48242h1.3644zm-35.18041 0h1.44119L4.1755.908513C3.94594.831724 3.66223.784036 3.35912.784036c-.33059 0-.44861.043647-.70726.124477L.344971 7.56486H1.72797s.18672-.58359.40657-1.30702h2.38934c.21339.72262.39041 1.30702.39041 1.30702zM2.48535 5.14158s.3993-1.33612.46154-1.54385c.15842-.53833.3993-1.39351.3993-1.39351h.0396s.22309.88589.36859 1.38381c.05496.19803.43648 1.55355.43648 1.55355H2.48535zM18.581 4.38016c-.4405 0-.7986.35969-.7986.80022 0 .44375.3581.80102.7986.80102.4413 0 .7978-.35727.7978-.80102 0-.44053-.3565-.80022-.7978-.80022zM8.06665.795352H6.8146V7.56405h1.25205V.795352zM32.9421 3.761c.6919.01455.7776.15762.7776.73798v3.06588h1.2407V4.39148c0-.69191-.0808-.94167-.2651-1.19386-.2546-.35727-.755-.51246-1.6013-.51246-.8374 0-1.3708.08891-2.0571.29341v4.58629h1.2537V3.8192c.329-.04769.3872-.0582.6515-.0582zM11.1632.674916c-.7824 0-1.20836.155193-1.45893.511654-.18429.253-.26593.50842-.26593 1.20194v.59006h-.62158v1.01199h.62158v3.5743h1.24156l-.0032-3.5743h1.2375V2.97857h-1.2375l.0032-.54237c0-.62077.0946-.74121.9239-.74121.0897 0 .1907.00485.2982.01293l.1956-.972382c-.3063-.040415-.6199-.060622-.9344-.060622zm9.9615.063047c.426-.025057 1.3782-.060623 1.9755-.060623.1091 0 .2223.000807.3355.006465 1.1744 0 1.8477.855185 1.8477 1.859085 0 .68302-.3128 1.13647-1.0459 1.40645.8624.19075 1.3143.86407 1.3143 1.68773 0 .6046-.1706 1.08473-.4834 1.41209-.4057.3993-1.02.6232-1.838.6232-.7275 0-1.6409-.02263-2.1057-.05011V.737963zm1.9755 1.108987c-.2069 0-.4631.00404-.7169.01293v1.62549h.7177c.2845 0 .5133-.07921.6693-.23198.1487-.14388.2263-.34757.2263-.58925 0-.51974-.2813-.81396-.8042-.81719h-.0922zm.0259 4.65823h.0541c.6523 0 1.0516-.34676 1.0565-1.04513-.0065-.25058-.1027-.48175-.2748-.64907-.1884-.18914-.4551-.28775-.7679-.28775h-.8107V6.4979c.2287.00485.4809.00566.7428.00728z" fill="#EE2A23"/></svg>