<svg width="436" height="174" fill="none" xmlns="http://www.w3.org/2000/svg"><g clip-path="url(#clip0)"><path d="M206.2 84.5801V135.33h-16.1V10.0001h42.7c5.097-.10645 10.164.7975 14.91 2.6598 4.746 1.8622 9.076 4.6458 12.74 8.1902 3.701 3.3292 6.647 7.4121 8.639 11.9743 1.992 4.5623 2.985 9.4981 2.911 14.4757.106 5.0043-.871 9.9724-2.865 14.5636-1.993 4.5913-4.956 8.6972-8.685 12.0364-7.467 7.12-16.683 10.6767-27.65 10.67h-26.6v.01zm0-59.15v43.75h27c2.96.0878 5.906-.4433 8.649-1.5591 2.743-1.1158 5.223-2.7918 7.281-4.9209 2.048-1.9906 3.675-4.3716 4.787-7.0021 1.111-2.6305 1.683-5.4572 1.683-8.3129 0-2.8556-.572-5.6823-1.683-8.3129-1.112-2.6305-2.739-5.0115-4.787-7.0021-2.032-2.1739-4.504-3.891-7.25-5.0375-2.746-1.1465-5.705-1.6961-8.68-1.6125h-27v.01zM309.1 46.78c11.9 0 21.293 3.18 28.18 9.54 6.887 6.36 10.327 15.08 10.32 26.16v52.85h-15.4v-11.9h-.7c-6.667 9.8-15.533 14.7-26.6 14.7-9.447 0-17.35-2.8-23.71-8.4-3.052-2.57-5.493-5.789-7.143-9.422-1.65-3.633-2.469-7.588-2.397-11.578 0-8.8733 3.353-15.93 10.06-21.17 6.707-5.24 15.66-7.8666 26.86-7.88 9.56 0 17.433 1.75 23.62 5.25v-3.68c.018-2.7198-.569-5.4096-1.719-7.8743-1.151-2.4647-2.835-4.6426-4.931-6.3757-4.258-3.8412-9.806-5.9371-15.54-5.87-8.993 0-16.11 3.7934-21.35 11.38l-14.18-8.93c7.8-11.2 19.343-16.8 34.63-16.8zm-20.83 62.3c-.011 2.049.468 4.071 1.397 5.897.929 1.827 2.281 3.405 3.943 4.603 3.561 2.801 7.98 4.285 12.51 4.2 6.794-.011 13.306-2.716 18.11-7.52 5.333-5.02 8-10.91 8-17.67-5.02-4-12.02-6-21-6-6.54 0-11.993 1.5767-16.36 4.73-4.41 3.2-6.6 7.09-6.6 11.76zM436 49.5801L382.24 173.13h-16.62l19.95-43.23-35.35-80.3199h17.5l25.55 61.5999h.35l24.85-61.5999H436z" fill="#fff"/><path d="M141.14 73.64c.006-4.9065-.409-9.8044-1.24-14.64H72v27.73h38.89c-.796 4.4289-2.48 8.6508-4.952 12.4111-2.471 3.7609-5.678 6.9819-9.428 9.4689v18h23.21c13.59-12.53 21.42-31.06 21.42-52.97z" fill="#4285F4"/><path d="M71.9999 144c19.43 0 35.7901-6.38 47.7201-17.38l-23.2101-18c-6.46 4.38-14.78 6.88-24.51 6.88-18.78 0-34.72-12.66-40.42-29.72H7.66992v18.55c5.99268 11.925 15.18178 21.949 26.54138 28.954C45.571 140.289 58.654 143.999 71.9999 144z" fill="#34A853"/><path d="M31.5801 85.7799c-3.0133-8.9395-3.0133-18.6204 0-27.56v-18.55H7.67014C2.6289 49.7015.00341797 60.7729.00341797 71.9999c0 11.227 2.62548203 22.2985 7.66672203 32.3301L31.5801 85.7799z" fill="#FBBC04"/><path d="M71.9999 28.5001c10.2679-.1678 20.1894 3.7117 27.62 10.8l20.5501-20.55C107.139 6.51084 89.8761-.208705 71.9999.0000852 58.654.00069345 45.571 3.71063 34.2113 10.7157 22.8517 17.7208 13.6626 27.7453 7.66992 39.6701l23.90998 18.55c5.7-17.06 21.64-29.72 40.42-29.72z" fill="#EA4335"/></g><defs><clipPath id="clip0"><path fill="#fff" d="M0 0h435.97v173.13H0z"/></clipPath></defs></svg>