<svg width="809" height="229" fill="none" xmlns="http://www.w3.org/2000/svg"><path fill-rule="evenodd" clip-rule="evenodd" d="M218 .00000436V.100004c-.1 0-31.6-.10000019-40 29.999996-7.7 27.6-29.4 103.8-30 105.9h-6s-22.2-77.9-30-106C103.6-.0999966 72 .00000436 72 .00000436H0V229h72V93h6l42 136h50l42-135.9h6V229h72V.00000436h-72zM481 0s-21.1 1.9-31 24l-51 112h-6V0h-72v229h68s22.1-2 32-24l50-112h6v136h72V0h-68zM581 104v125h72v-73h78c34 0 62.8-21.7 73.5-52H581z" fill="#4DB45E"/><path fill-rule="evenodd" clip-rule="evenodd" d="M731 0H570.9c8 43.6 40.7 78.6 83 90 9.6 2.6 19.7 4 30.1 4h123.4c1.1-5.2 1.6-10.5 1.6-16 0-43.1-34.9-78-78-78z" fill="#00B4E6"/></svg>