<svg width="112" height="51" fill="none" xmlns="http://www.w3.org/2000/svg"><path d="M54.777 28.7161h1.737v3.893h1.255l2.252-3.893h1.899l-2.703 4.569v.032l2.864 4.986h-1.963l-2.317-4.183h-1.254v4.183h-1.738v-9.588h-.032v.001zm11.197 2.542c2.09 0 3.796 1.512 3.796 3.603 0 2.124-1.673 3.604-3.764 3.604-2.092 0-3.765-1.48-3.765-3.604-.032-2.123 1.641-3.603 3.733-3.603zm5.147.16h1.641v5.406h2.156v-5.405h1.64v5.405h2.156v-5.405h1.641v6.884h-9.17v-6.885h-.064zm14.093-.16c1.962 0 3.056 1.448 3.056 3.25-.0054.2262-.0268.4518-.064.675h-4.73c.097 1.19 1.03 1.834 2.06 1.834.707 0 1.415-.322 1.962-.74l.676 1.223c-.708.61-1.77.997-2.767.997-2.285 0-3.7-1.641-3.7-3.604 0-2.155 1.447-3.635 3.507-3.635zm3.86 5.598c.837-.129 1.448-.836 1.448-3.282v-2.155h5.02v6.884h-1.706v-5.502h-1.673v.772c0 2.992-.804 4.73-3.089 4.794v-1.512.001zm11.358-5.598c1.962 0 3.056 1.448 3.056 3.25-.005.2262-.027.4518-.064.675h-4.73c.097 1.19 1.03 1.834 2.06 1.834.707 0 1.415-.322 1.962-.74l.676 1.223c-.708.61-1.77.997-2.767.997-2.284 0-3.7-1.641-3.7-3.604 0-2.155 1.448-3.635 3.507-3.635zm4.472.16h1.705v2.639h.837l1.673-2.638h1.898l-2.188 3.281v.033l2.445 3.57h-1.994l-1.802-2.798h-.9v2.798h-1.707v-6.885h.033zm-38.93 5.567c1.126 0 2.059-.869 2.059-2.156 0-1.255-.933-2.156-2.06-2.156-1.125 0-2.026.87-2.026 2.156 0 1.287.9 2.156 2.027 2.156zm20.559-2.992c0-.901-.612-1.448-1.384-1.448-.868 0-1.512.579-1.673 1.448h3.057zm15.218 0c0-.901-.611-1.448-1.383-1.448-.87 0-1.513.579-1.674 1.448h3.057z" fill="#fff"/><path d="M78.811 7.835v16.248c.0014.0595-.0093.1186-.0315.1738-.0221.0552-.0552.1054-.0973.1474-.042.0421-.0922.0752-.1474.0973-.0552.0222-.1143.0329-.1738.0315h-3.314c-.0595.0014-.1186-.0093-.1738-.0315-.0552-.0221-.1054-.0552-.1474-.0973-.0421-.042-.0752-.0922-.0973-.1474-.0222-.0552-.0329-.1143-.0315-.1738V7.835c-.0014-.05947.0093-.1186.0315-.17381.0221-.05522.0552-.10537.0973-.14743.042-.04207.0922-.07516.1474-.09729.0552-.02213.1143-.03284.1738-.03147h3.314c.0595-.00137.1186.00934.1738.03147.0552.02213.1054.05522.1474.09729.0421.04206.0752.09221.0973.14743.0222.05521.0329.11434.0315.17381zm25.868-.45c.129 0 .29.064.45.193.097.096.097.257.065.386l-5.47 16.28c-.0332.0842-.0906.1568-.165.2084-.0744.0516-.1625.08-.253.0816h-2.96c-.193 0-.354-.097-.418-.29l-3.187-9.491-3.185 9.49c-.0332.0842-.0906.1568-.165.2084-.0744.0516-.1625.08-.253.0816h-2.96c-.193 0-.354-.096-.418-.29l-5.47-16.28c-.032-.128-.032-.257.064-.385.065-.129.226-.193.354-.193h3.7c.193 0 .354.128.419.321l2.927 9.62 3.218-9.62c.0332-.08425.0906-.15676.165-.20838.0744-.05161.1625-.08002.253-.08162h2.606c.193 0 .354.097.418.29l3.218 9.62 2.928-9.62c.026-.09113.081-.17147.156-.22923.075-.05776.167-.08992.262-.09177h3.701zm5.598 0c.225 0 .418.193.45.45v16.248c.001.0595-.009.1186-.031.1738-.023.0552-.056.1054-.098.1474-.042.0421-.092.0752-.147.0973-.055.0222-.115.0329-.174.0315h-3.314c-.059.0014-.119-.0093-.174-.0315-.055-.0221-.105-.0552-.147-.0973-.042-.042-.075-.0922-.098-.1474-.022-.0552-.032-.1143-.031-.1738V7.835c-.001-.05947.009-.1186.031-.17381.023-.05522.056-.10537.098-.14743.042-.04207.092-.07516.147-.09729.055-.02213.115-.03284.174-.03147h3.314zm-37.611 16.57c.193.225.032.546-.258.546h-4.054c-.0798.0022-.1591-.0141-.2316-.0476-.0725-.0335-.1363-.0832-.1864-.1454l-.675-.836c-1.416.9-3.09 1.448-4.859 1.448-4.954 0-8.976-4.022-8.976-8.977s4.022-8.977 8.976-8.977c4.955 0 8.977 4.022 8.977 8.977 0 1.77-.515 3.443-1.416 4.858l2.703 3.153v.001zm-33.88 7.882c.837.322 1.159 1.576 1.223 2.123.129.998-.16 1.384-.482 1.384-.322 0-.773-.386-1.255-1.158-.483-.773-.676-1.641-.418-2.092.16-.29.514-.418.933-.257h-.001zm-4.89 3.636c.515 0 1.094.225 1.609.675.997.837 1.287 1.802.772 2.51-.29.354-.772.579-1.319.579-.547 0-1.126-.193-1.512-.547-.901-.772-1.158-2.06-.58-2.767.226-.29.58-.45 1.03-.45zm-11.26 9.298C10.409 44.771.5 34.861.5 22.635.5 10.409 10.41.5 22.635.5c12.226 0 22.136 9.91 22.136 22.135 0 4.15-1.158 8.044-3.12 11.358-.065.096-.226.064-.258-.065-.772-5.437-4.086-8.43-8.912-9.33-.419-.065-.483-.322.064-.386 1.48-.129 3.571-.097 4.665.096.064-.547.097-1.126.097-1.705 0-8.076-6.564-14.64-14.64-14.64-8.075 0-14.639 6.564-14.639 14.64s6.564 14.64 14.64 14.64h.675c-.2293-1.3063-.3265-2.6323-.29-3.958.033-.901.226-1.03.612-.322 2.027 3.507 4.923 6.66 10.585 7.915 4.633 1.03 9.266 2.22 14.253 8.558.45.547-.225 1.126-.74.676-5.083-4.505-9.716-5.985-13.931-5.985-4.73.033-7.947.644-11.197.644h.001zm41.986-24.42l-1.77-2.156c-.192-.225-.031-.579.258-.579h3.732c.193-.515.29-1.094.29-1.673 0-2.67-1.995-4.987-4.73-4.987-2.734 0-4.73 2.317-4.73 4.987s1.996 4.955 4.73 4.955c.772.032 1.545-.193 2.22-.547z" fill="#FF8C00"/></svg>