<svg width="86" height="83" fill="none" xmlns="http://www.w3.org/2000/svg"><path d="M78.39 15.9601c-.93-1.27-1.85-2.54-2.66-3.82l-49.72 28.56-23.99999-13.76c-.55083 1.4848-.88754 3.0404-1 4.62L26.24 46.1701l52.15-30.21z" fill="#fff"/><path d="M26.0099 51.45L.229894 36.65c-.1907724.9103-.268027 1.8407-.22999966 2.77 0 11.3155 4.49504566 22.1675 12.49630566 30.1687C20.4974 77.59 31.3494 82.085 42.6649 82.085s22.1675-4.495 30.1687-12.4963c8.0013-8.0012 12.4963-18.8532 12.4963-30.1687.0478-6.7511-1.5372-13.4137-4.62-19.42l-54.7 31.45z" fill="#fff"/><path d="M72.2601 8.55982c-1.2151-1.14688-2.4902-2.2284-3.82-3.24l-42.43 24.62998-20.46-11.68c-.69 1.27-1.39 2.66-2.2 4.16l22.43 12.95 46.48-26.81998z" fill="#fff"/><path d="M64.2801 2.54977c-1.6059-.96135-3.2766-1.810063-5-2.54000438L26.0101 19.1698l-14.91-8.41c-1 1-2 2.31-3 3.58l17.8 10.18 38.38-21.97003z" fill="#fff"/></svg>