<svg width="360" height="111" fill="none" xmlns="http://www.w3.org/2000/svg"><path d="M128.66 108.8L146.793 1.72607h29.357L158.018 108.8H128.66zM262.529 4.494C256.711 2.324 247.596 0 236.213 0c-29.014 0-49.451 14.526-49.627 35.337-.161 15.382 14.589 23.962 25.732 29.088 11.427 5.238 15.27 8.599 15.214 13.28-.071 7.177-9.13 10.458-17.571 10.458-11.749-.004-17.994-1.624-27.637-5.62l-3.783-1.706-4.123 23.97c6.859 2.99 19.543 5.583 32.71 5.714 30.858-.007 50.899-14.353 51.124-36.583.112-12.179-7.712-21.448-24.651-29.092-10.264-4.947-16.55-8.251-16.482-13.272 0-4.449 5.324-9.208 16.815-9.208 9.601-.15 16.557 1.931 21.979 4.101l2.627 1.235 3.989-23.208zM312.582 1.72607c-7.034 0-12.116 2.14801-15.207 9.11903l-43.509 97.9589h31.083l6.043-16.4079h37.137l3.45 16.4079h27.633L335.037 1.72908h-22.454l-.001-.00301zM299.239 70.9711c2.425-6.166 11.693-29.927 11.693-29.927-.168.281 2.413-6.196 3.895-10.215l1.987 9.227s5.616 25.56 6.795 30.918h-24.37v-.003zM75.123 75.1241l-2.586-14.679c-5.358-17.111-21.987-35.625-40.621-44.901L57.854 108.8h31.09L135.57 1.72607h-31.083L75.123 75.1241z" fill="#F3F2F2"/><path d="M0 1.72607v1.72901C36.838 12.3151 62.413 34.7141 72.538 60.4461l-10.645-49.582c-1.777-6.77603-7.162-8.90203-13.534-9.13703L0 1.72607z" fill="#F7981D"/></svg>