<svg width="41" height="41" fill="none" xmlns="http://www.w3.org/2000/svg"><path d="M32.2477 20.2868l-3.6406 3.3021 3.2872 3.6525 3.6406-3.3021-3.2872-3.6525zM24.9928 23.2578l-4.855 4.3874 4.3723 4.8763 4.8551-4.3874-4.3724-4.8763zM38.8143 19.1245l-2.4251 2.1943 2.1858 2.4345L41 21.559l-2.1857-2.4345zM25.7756 5.22247l-3.6442 3.29315 3.2803 3.65838 3.6442-3.29313-3.2803-3.6584zM35.7093 11.8494l-2.4201 2.1951 2.1887 2.4319 2.4201-2.1951-2.1887-2.4319zM21.5471 14.8101l-4.8596 4.3916 4.3724 4.8763 4.8596-4.3916-4.3724-4.8763zM18.0766 6.50055L13.2193 10.89l4.3723 4.8763 4.8574-4.3894-4.3724-4.87635zM29.1227 12.5793l-3.6351 3.2939 3.2873 3.6563 3.6351-3.2939-3.2873-3.6563zM32.5926 4.61817l-2.4251 2.19429L32.3533 9.247l2.425-2.1943-2.1857-2.43453zM35.4559 27.6777l-3.6427 3.2951 3.2844 3.6593 3.6427-3.2951-3.2844-3.6593z" fill="#fff"/><path d="M29.0655 31.823l-4.7478 4.395-8.0157-8.9554 2.2293-1.9696-5.6122-6.3085 2.2417-1.9727-5.69616-6.3022 8.88946-8.03454 2.8232 3.10271 4.7665-4.27012 2.817 2.93102 1.878-1.68869c-.4197-.24347-.8395-.46822-1.2654-.67111C26.6652.749139 23.6243 0 20.4217 0 9.17548 0 0 9.20822 0 20.5016 0 31.7918 9.17548 41 20.4217 41c3.6535 0 7.0954-.9708 10.0648-2.6719.9794-.5557 1.8718-1.1581 2.6864-1.7917l-4.1074-4.7134z" fill="#fff"/></svg>