<svg width="1201" height="229" fill="none" xmlns="http://www.w3.org/2000/svg"><path d="M58.4001 120.8l-33.4 75.1H.600098L37.3001 115.6c-8.6-4.4-15.5-10.8-20.8-19.3-5.3-8.5-7.9-20-7.9-34.7 0-10.2 1.5-19.2 4.5-27 3-7.8 7.1-14.2 12.3-19.3 5.2-5.1 11.3-9 18.2-11.5 6.9-2.6 14.3-3.8 21.9-3.8h31.5v196h-21.1v-75.1h-17.5v-.1zm17.5-103.3h-11.2c-4.2 0-8.3.8-12.3 2.3-4 1.6-7.6 4-10.7 7.4-3.1 3.4-5.6 7.9-7.5 13.5-1.9 5.6-2.9 12.5-2.9 20.8 0 7.9.9 14.5 2.6 19.8 1.7 5.3 4.1 9.6 7.1 12.9 3 3.3 6.6 5.6 10.7 7 4.1 1.4 8.4 2.1 13 2.1h11.2V17.5z" fill="#EE2E24"/><path d="M198.7 57.8v138.1h-21.1V134h-31.8v61.9h-21.4V57.8h21.4v58.7h31.8V57.8h21.1zM308.6 223h-19.2v-27.1h-59.2V223H211v-44.7h8.5c3.1-7.3 5.6-15.4 7.4-24.3 1.8-8.9 3.2-18 4.2-27.4 1-9.4 1.6-19 1.9-28.8.3-9.8.4-19.2.4-28.4V57.8h64.1v120.6h11V223h.1zM276.5 75.3h-23.8v2.5c0 7.3-.1 15.3-.4 23.9-.3 8.7-.9 17.5-1.8 26.4-.9 8.9-2.2 17.7-3.8 26.4-1.6 8.7-3.9 16.6-6.9 23.9h36.7V75.3zm125 111.3c-4.4 3.5-9.4 6.2-15.1 8.2-5.7 2-12 3-18.9 3-14.3 0-25.5-5.5-33.7-16.6-8.2-11.1-12.3-27.3-12.3-48.6 0-11.1.8-21.4 2.3-30.7 1.6-9.3 4-17.4 7.4-24.3 3.4-6.9 7.7-12.2 13-16 5.3-3.8 11.6-5.8 18.9-5.8 5.7 0 10.9 1.1 15.6 3.4 4.7 2.3 8.8 6 12.1 11.1 3.3 5.1 5.8 11.7 7.7 19.9 1.8 8.1 2.7 18 2.7 29.7v11.8h-57.6c0 15.7 2.1 27.6 6.4 35.6 4.3 8 10.7 12.1 19.3 12.1 6 0 11.4-1 16-3.2 4.7-2.1 8.4-4.2 11.1-6.2l5.1 16.6zM363.1 73.4c-6.6 0-11.2 3.7-14 11.1-2.8 7.4-4.5 17.3-5.2 29.7h35.4c0-5.8-.3-11.3-.8-16.3s-1.4-9.4-2.6-13c-1.2-3.7-2.8-6.5-4.9-8.5-2.1-2-4.8-3-7.9-3zm81.4 53.7v68.8h-21.4V57.8h21.4v63.9l33.2-63.9h21.7l-34.3 65 39.2 73.2H481l-36.5-68.9zm109.9 70.7c-14.8 0-26.4-5.9-34.8-17.7-8.4-11.8-12.6-29.6-12.6-53.3 0-10.8 1-20.6 3.2-29.3 2.1-8.8 5.2-16.2 9.3-22.3 4.1-6.1 9.2-10.9 15.3-14.3 6.1-3.4 13.2-5.1 21.2-5.1 6.2 0 11.2.7 15.1 2.1 3.8 1.4 7.3 3.1 10.4 5.1l-3 20.3c-2.9-2.6-6.4-4.9-10.3-6.9-3.9-2-8.1-3-12.5-3-7.7 0-14 4.3-18.9 13-4.9 8.6-7.4 21.8-7.4 39.4 0 17.4 2.1 30.9 6.2 40.4s10.6 14.2 19.3 14.2c5.3 0 9.9-.9 13.7-2.7 3.8-1.8 7-3.8 9.6-6.1l4.9 15.9c-3.7 3.1-7.8 5.6-12.3 7.5-4.5 1.9-10 2.8-16.4 2.8zM728.5 195.9h-83.9l-1.9 32.6H632V185h5.8c4.7-4 8.4-11.2 11-21.4 2.6-10.2 4.6-22.4 6-36.5 1.5-14.6 2.5-32.5999 3-53.8999.5-21.3 1-45.7 1.4-73.100002h68.5V185.1h13.4v43.6h-10.7l-1.9-32.8zM713.9 10.9001h-42.5c-.4 25.1-.9 47.2-1.6 66.1-.7 19-1.6 35.5999-2.7 49.8999-1.3 14.9-3.1 27.1-5.3 36.7-2.3 9.6-5.3 16.7-8.9 21.3H714V10.9001h-.1zM767.4 129c.4 19.1 3 33.6 7.9 43.6s12.4 15 22.5 15c4.6 0 8.6-.7 12.1-2.2 3.5-1.5 6.4-3.3 8.8-5.3 2.7-2 5.1-4.6 7.1-7.5l4.1 10.4c-2.2 3.1-4.8 5.8-7.9 7.9-2.7 2-6.1 3.8-10.1 5.3s-8.8 2.3-14.3 2.3c-14.6 0-25.4-6.3-32.3-18.9-6.9-12.6-10.4-30.2-10.4-52.9 0-11.3 1-21.4 3-30.3001 2-8.9 4.8-16.4 8.4-22.6 3.6-6.2 7.8-10.9 12.7-14.1 4.9-3.2 10.3-4.8 16.2-4.8 6 0 11.4 1.6 16.2 4.7 4.7 3.1 8.7 7.8 11.8 14 3.1 6.2 5.3 13.9 6.6 23.2C831.1 106 831.2 116.8 830.1 129h-62.7zm27.7-63.0001c-7.3 0-13.6 4.5-18.8 13.5-5.2 9-8.1 22.1001-8.6 39.4001h50.2c1.1-18.4-.7-31.8001-5.3-40.2001-4.6-8.4-10.6-12.7-17.5-12.7zM914.3 129.9h-47.1V196h-12.9V57.8h12.9v61.1h47.1V57.8h12.9v138.1h-12.9v-66zM957.6 57.8h12.9V109h10.1c13.2 0 23.7 3.6 31.5 10.7 7.9 7.1 11.8 17.9 11.8 32.3 0 14.6-4.1 25.6-12.3 32.9-8.2 7.3-18.8 11-31.8 11h-22.2V57.8zm12.9 61.4v66.6h8.2c9.7 0 17.5-2.6 23.6-7.8 6.1-5.2 9-13.7 9-25.6 0-11.7-2.7-20.1-8.2-25.4-5.5-5.2-13.2-7.8-23-7.8h-9.6zM1058.7 68.7v127.2h-12.6V57.8h58.4v11h-45.8v-.1zM1188.6 99.7c0-3.7.1-7 .3-10 .2-3 .5-6 .8-8.9h-.8c-.9 3.1-2 6.1-3.3 8.9-1.3 2.8-2.7 5.8-4.1 8.9l-44.9 97.3h-11V57.8h12.1v95.9c0 3.7-.1 7-.3 10.1-.2 3.1-.5 6.2-.8 9.3h.8c.9-3.1 2-6.2 3.3-9.2 1.3-3 2.6-6.1 4.1-9.2l44.9-97h11.2v138.1h-12.3V99.7z" fill="#fff"/></svg>