<svg width="432" height="88" fill="none" xmlns="http://www.w3.org/2000/svg"><path d="M25.8302.77002c-12.24 0-22.52002 8.07-22.52002 24.19998 0 11.5 4.55 17.74 11.37002 21.18L.180176 77.66H9.81018L23.0202 48.19h6.93v29.47h8.33V.77002h-12.45zm4.11 40.53998h-4.44c-7.25 0-13.21-3.98-13.21-16.34 0-12.8 6.5-17.20997 13.21-17.20997h4.44V41.31zM70.0602 23.29h8.29v53.97h-8.29v-24.2h-12.49v24.2h-8.41V23.29h8.41v22.92h12.49V23.29zM117.24 70.41V23.29H92.0402v4.61c0 14.35-.55 31.05-5.5 42.51h-3.34v17.45h7.53v-10.6H114v10.6h7.55V70.41h-4.31zm-8.29 0H94.5202c4.52-11.46 5.06-28.05 5.06-39.41v-.97h9.3698v40.38zM156.13 67.2c-2.16 1.5-5.93 3.64-10.66 3.64-6.68 0-10.13-6.42-10.13-18.64h22.62v-4.61c0-18.3-5.92-25.05-14.97-25.05-11.53 0-16.38 12.64-16.38 29.98 0 16.6 6.9 25.49 18.1 25.49 5.38 0 9.91-1.72 13.35-4.4l-1.93-6.41zm-13.14-37.8c4.84 0 6.35 6.75 6.35 15.95h-13.9c.54-9.64 2.38-15.95 7.55-15.95zM183.06 48.67l15.39 28.59h-9.15l-14.32-26.88v26.88h-8.4V23.29h8.4v24.95l13.03-24.95h8.51l-13.46 25.38zM229.49 73.94c-2.92 2.46-6.36 4.07-11.31 4.07-11.64 0-18.64-9.32-18.64-27.74 0-16.92 6.57-27.74 19.28-27.74 4.85 0 7.65 1.28 10.02 2.78l-1.19 7.92c-2.27-1.92-5.49-3.75-8.94-3.75-6.03 0-10.34 6.75-10.34 20.35 0 13.5 3.23 21.2 10.01 21.2 4.1 0 7.22-1.61 9.16-3.32l1.95 6.23zM266.12 36.26l23.92 41.4h-5.97l-23.39-40.54v40.54h-5.35V.77002h5.35V36.69L283 .77002h5.12l-22 35.48998zM322.89 67.92V38.27c0-10.78-5.03-15.73-13.9-15.73-6.09 0-10.58 2.7-12.72 5.5l1.4 4.85c2.56-3.77 6.73-5.93 11.32-5.93 5.89 0 8.98 3.56 8.98 11.86v6.79h-5.88c-11.66 0-17.97 6.03-17.97 17.67 0 9.92 5.03 15.73 12.3 15.73 5.34 0 9.19-3.23 11.76-8.4.31 3.87.85 5.92 1.28 7.33h4.6c-.64-2.04-1.17-6.25-1.17-10.02zm-4.92-3.66c-1.92 5.81-5.45 10.66-10.47 10.66-5.13 0-8.45-4.42-8.45-12.07 0-9.49 4.28-13.58 13.15-13.58h5.77v14.99zM359.18 68.78l1.63 4.2s-4.02 6.03-12.62 6.03c-11 0-17.31-10.45-17.31-28.13 0-17.89 6.2-28.35 17.41-28.35 5.67 0 9.58 2.15 11.98 5.07l-1.42 5.38c-2.4-3.34-5.88-6.14-10.57-6.14-8.37 0-12.3 8.73-12.3 24.03 0 14.87 3.81 23.71 12.3 23.71 7.09.01 10.9-5.8 10.9-5.8zM395.24 68.78l1.64 4.2s-4.03 6.03-12.64 6.03c-10.99 0-17.31-10.45-17.31-28.13 0-17.89 6.2-28.35 17.42-28.35 5.66 0 9.58 2.15 11.97 5.07l-1.42 5.38c-2.39-3.34-5.88-6.14-10.56-6.14-8.39 0-12.31 8.73-12.31 24.03 0 14.87 3.82 23.71 12.31 23.71 7.09.01 10.9-5.8 10.9-5.8zM430.39 67.92V38.27c0-10.78-5.02-15.73-13.89-15.73-6.1 0-10.59 2.7-12.73 5.5l1.4 4.85c2.56-3.77 6.74-5.93 11.33-5.93 5.88 0 8.98 3.56 8.98 11.86v6.79h-5.88c-11.66 0-17.97 6.03-17.97 17.67 0 9.92 5.03 15.73 12.29 15.73 5.35 0 9.2-3.23 11.76-8.4.33 3.87.86 5.92 1.29 7.33h4.6c-.64-2.04-1.18-6.25-1.18-10.02zm-4.91-3.66c-1.93 5.81-5.46 10.66-10.48 10.66-5.13 0-8.45-4.42-8.45-12.07 0-9.49 4.28-13.58 13.16-13.58h5.77v14.99z" fill="#fff"/></svg>