<svg width="933" height="192" fill="none" xmlns="http://www.w3.org/2000/svg"><g clip-path="url(#clip0)"><path opacity=".5" d="M537.826-15.3179L396.967 58.4302 498.869 253.041l140.86-73.748L537.826-15.3179z" fill="url(#paint0_linear)"/><path d="M536.783-12.9457L399.508 58.926l99.65 190.31 137.276-71.872-99.651-190.3097z" fill="#fff"/><path d="M499.745.0402205L431.645 35.6948l8.637 16.4949 68.1-35.6546L499.745.0402205z" fill="url(#paint1_linear)"/><path d="M457.252 1.74667c-5.256 2.75291-7.234 9.34743-4.415 14.73023 2.819 5.3828 9.367 7.5148 14.623 4.7619 5.256-2.7529 7.234-9.3474 4.415-14.7302-2.819-5.38277-9.367-7.51484-14.623-4.76193zM465.3 17.1157c-1.104.612-2.366.8809-3.624.7726-1.257-.1084-2.454-.5892-3.438-1.381-.983-.7918-1.708-1.8587-2.082-3.0644-.374-1.2057-.38-2.4955-.018-3.70473.363-1.20923 1.078-2.28297 2.053-3.08411.976-.80114 2.168-1.29332 3.425-1.41368 1.257-.12036 2.521.13656 3.631.73795 1.11.60139 2.015 1.51996 2.601 2.63839.391.72552.635 1.52098.719 2.34088.083.8199.005 1.6483-.232 2.4378-.236.7895-.626 1.5247-1.147 2.1635-.521.6389-1.162 1.1689-1.888 1.5599v-.0031z" fill="url(#paint2_linear)"/><path d="M499.032.428202L432.366 35.3316l8.257 15.7694 66.666-34.9034L499.032.428202z" fill="#26ABE3"/><path d="M457.627 2.46564c-1.844.96485-3.36 2.45467-4.356 4.28106-.997 1.82639-1.43 3.9073-1.244 5.9796.186 2.0723.983 4.0429 2.289 5.6625 1.306 1.6197 3.063 2.8156 5.049 3.4367 1.986.621 4.111.6393 6.108.0524 1.996-.5869 3.773-1.7526 5.107-3.3496 1.334-1.597 2.164-3.5536 2.385-5.6224.222-2.0688-.175-4.15685-1.14-6.00006-1.294-2.47131-3.517-4.32742-6.18-5.16009-2.662-.832677-5.547-.57373-8.018.71989zm7.694 14.69546c-1.063.5564-2.268.7851-3.461.6571s-2.321-.6069-3.242-1.3761c-.922-.7692-1.594-1.7942-1.932-2.9455-.339-1.1512-.328-2.377.03-3.52232.358-1.14531 1.048-2.15873 1.982-2.91213.934-.7534 2.07-1.21295 3.265-1.32055 1.196-.1076 2.396.14158 3.45.71604 1.053.57446 1.913 1.4484 2.47 2.51133.746 1.42563.895 3.08923.415 4.62493-.481 1.5357-1.551 2.8177-2.977 3.5641v.0031z" fill="#26ABE3"/><path d="M451.492 70.9824L422.1 86.3707l15.389 29.3893 29.392-15.388-15.389-29.3896z" fill="url(#paint3_linear)"/><path d="M482.088 129.171l-29.392 15.388 15.389 29.39 29.392-15.388-15.389-29.39z" fill="url(#paint4_linear)"/><path d="M450.977 72.621l-27.24 14.2616L438 114.12l27.239-14.2612-14.262-27.2378z" fill="#69F0AE"/><path d="M481.191 130.321l-27.239 14.262 14.262 27.237 27.24-14.261-14.263-27.238z" fill="#3ABEF6"/><path d="M510.638 52.0991l-37.337 19.5483 1.364 2.6053 37.337-19.5483-1.364-2.6053zM536.999 43.2775l-61.65 32.2772 1.365 2.6054 61.649-32.2773-1.364-2.6053zM534.7 49.4584l-57.308 30.0038 1.365 2.6053 57.307-30.0038-1.364-2.6053zM540.854 109.802l-37.337 19.548 1.364 2.606 37.337-19.549-1.364-2.605zM567.213 100.978l-61.649 32.277 1.364 2.605 61.65-32.277-1.365-2.605zM564.915 107.161l-57.307 30.004 1.364 2.605 57.308-30.003-1.365-2.606z" fill="#E0E0E0"/><path d="M437.457 94.983l7.32 1.944 1.613-13.9719 3.553.7665-3.006 17.3284-11.107-4.1641 1.627-1.9029z" fill="url(#paint5_linear)"/><path d="M438.364 94.7503l6.365 1.6884 1.401-12.1491 3.088.6676-2.613 15.0668-9.658-3.6183 1.417-1.6554zM468.766 152.81l6.365 1.689 1.402-12.15 3.087.668-2.613 15.067-9.658-3.619 1.417-1.655z" fill="#fff"/><path d="M588.92 147.67l-87.097 45.6 15.2 29.03 87.098-45.601-15.201-29.029z" fill="#E0E0E0"/><path d="M577.264 172.099c-3.486-.792-6.988-.415-7.868 3.57-.297 1.342-.228 3.398-1.61 4.157-2.033 1.117-4.661-.753-6.518-1.472-3.459-1.34-6.869-.114-8.65 3.196-.902 1.677-1.225 3.568-1.462 5.435-.102.811-.067 1.803-.363 2.577-.569 1.482-2.602 1.462-3.934 1.479-.291.015-.59-.002-.889-.017.971-1.505 1.4-3.296 1.214-5.078-.246-2.928-2.326-6.034-5.636-5.493-2.967.472-4.91 3.467-4.417 6.364.42 2.462 2.139 4.295 4.272 5.359-.992.505-2.057.914-2.992 1.431-.437.241-.859.508-1.264.799-2.979-1.242-6.807-1.298-9.341.272-1.226.76-.191 2.763 1.041 1.997 1.93-1.196 4.138-1.042 6.254-.465l.177.053c-.191.274-.357.565-.497.869-1.049 2.343.321 5.885 3.191 5.977 4.045.125 3.945-5.207 1.642-7.207-.098-.084-.195-.166-.299-.244.881-.486 1.842-.868 2.686-1.284.736-.359 1.431-.797 2.073-1.305l.157.031c3.114.53 7.927.485 8.83-3.301.772-3.286.488-10.158 5.634-9.801 2.099.144 3.896 1.652 5.91 2.123 1.804.433 3.859.343 5.244-1.043 1.143-1.144 1.326-2.751 1.614-4.257.147-.779.283-1.706.879-2.288 1.076-1.05 2.976-.569 4.256-.279 1.4.316 2.085-1.834.666-2.155zm-38.535 28.378c-.642.709-1.389.216-1.79-.468-.486-.831-.343-1.684.176-2.467.085-.128.177-.251.275-.369 1.389.794 2.553 1.977 1.352 3.304h-.013zm1.469-16.856c1.323-1.371 3.281-1.192 4.208.541s.698 4.262-.381 5.893c-.144.214-.304.416-.48.604-.827-.228-1.6-.615-2.277-1.141-1.729-1.397-2.811-4.094-1.058-5.907l-.012.01z" fill="#3ABEF6"/><path opacity=".1" d="M589.291 50.7566l-24.475 11.1093c-4.721-.094-14.685-.8316-24.757-4.9278-11.213-4.5593-23.736-3.8651-34.062 2.1121-24.44 1.9177-38.08-.4838-45.428-3.06l1.684-3.9938-25.884-8.5014-64.914-24.9488 6.336 116.3948 22.715 8.674 10.342-29.183 26.781 10.659 4.322-13.017 17.845 11.794 1.221.919-1.516 1.757c-1.39 1.637-2.099 3.744-1.982 5.888.116 2.144 1.05 4.161 2.609 5.638.754.715 1.647 1.269 2.623 1.627.975.359 2.014.515 3.052.458 1.038-.056 2.054-.324 2.985-.786.931-.463 1.758-1.11 2.43-1.903l-.829.977c-1.39 1.637-2.099 3.744-1.982 5.888.117 2.144 1.05 4.162 2.609 5.638.755.715 1.647 1.269 2.623 1.628.976.358 2.014.514 3.052.458 1.038-.057 2.054-.324 2.985-.787.931-.462 1.758-1.11 2.43-1.902l4.793-5.558-3.291 3.814c-1.389 1.637-2.098 3.744-1.982 5.888.117 2.144 1.051 4.161 2.61 5.638.754.715 1.647 1.269 2.622 1.627.976.359 2.015.515 3.053.458 1.038-.056 2.053-.324 2.985-.786.931-.463 1.758-1.11 2.43-1.903l4.731-5.486-1.99 2.308c-.971 1.143-1.467 2.616-1.386 4.114.082 1.498.735 2.908 1.825 3.939.526.5 1.15.886 1.831 1.137.681.25 1.407.359 2.132.319.724-.039 1.434-.226 2.084-.549.65-.323 1.227-.775 1.697-1.328l3.156-3.658c5.975 3.885 10.792 6.695 13.112 7.364 9.667 2.773 9.309-3.816 9.309-3.816 13.031 5.896 18.652-7.62 18.652-7.62 16.201 5.723 15.304-10.744 15.304-10.744 4.109 2.529 6.896 1.116 8.76-1.409 2.538-3.425 2.618-8.067.551-11.677l14.38-14.816 7.278 13.031 25.466-13.502 13.331 25.722 17.092-8.775-6.27-115.1773-57.08 32.8359z" fill="url(#paint6_linear)"/><path d="M588.402 111.937l-26.242 26.009-23.614-38.6613 48.355-14.9227 1.501 27.575z" fill="#BE7C5E"/><path d="M453.151 54.7692s9.518 11.7722 61.777 5.8546l33.142 44.2872 21.79 21.981c3.422 3.455 3.905 8.949.939 12.802-1.802 2.338-4.504 3.662-8.472 1.315 0 0 .834 15.318-14.819 10.025 0 0-5.46 12.587-18.048 7.127 0 0 .333 6.127-9.025 3.564-9.357-2.563-60.551-39.719-60.551-39.719l-22.28-14.15 15.547-53.0868z" fill="#FDA57D"/><path d="M564.284 64.0851s-13.239.7208-26.654-4.5108c-12.199-4.7509-26.024-3.3086-36.623 4.3766-8.638 6.2644-15.874 16.252-14.868 32.0417 0 0 12.581 11.6054 23.842-13.5883l9.191-.5004s10.518 30.1561 35.205 25.7341c24.686-4.423 30.306-7.7955 30.306-7.7955l-20.399-35.7574zM487.141 128.959l-1.049-.941c-2.833-2.54-7.189-2.303-9.73.53l-6.733 7.508c-2.541 2.833-2.304 7.189.529 9.73l1.049.94c2.833 2.54 7.189 2.303 9.73-.53l6.733-7.508c2.541-2.833 2.304-7.189-.529-9.729zM476.636 117.923l-1.049-.941c-2.833-2.54-7.189-2.303-9.73.53l-6.734 7.509c-2.54 2.832-2.303 7.188.53 9.729l1.049.94c2.833 2.541 7.189 2.303 9.73-.53l6.733-7.508c2.541-2.833 2.304-7.189-.529-9.729z" fill="#BE7C5E"/><path d="M501.343 135.865l-1.049-.941c-2.833-2.54-7.189-2.303-9.73.53l-8.181 9.123c-2.541 2.833-2.303 7.189.53 9.729l1.048.94c2.833 2.541 7.19 2.304 9.73-.529l8.182-9.123c2.54-2.833 2.303-7.189-.53-9.729zM509.179 146.129l-.732-.656c-1.979-1.775-5.021-1.609-6.795.369l-5.164 5.758c-1.774 1.979-1.608 5.021.37 6.795l.732.656c1.979 1.774 5.021 1.609 6.795-.37l5.164-5.758c1.774-1.978 1.608-5.02-.37-6.794z" fill="#BE7C5E"/><path d="M619.373 116.396l-26.907 13.755-31.245-65.8991 24.012-10.525 34.14 62.6691zM410.198 112.42l28.24 10.753 23.907-68.9012-25.013-7.8592-27.134 66.0074z" fill="#fff"/><path d="M374.554 22.177l62.778 24.2356-34.824 94.0794-21.95-8.023-6.004-110.292z" fill="#47525E"/></g><path d="M871.724-104.384L585.233 53.727l44.834 89.74L921.125-23.8373l-49.401-80.5467z" fill="#26ABE3"/><path d="M2.14807-5.72187L399.577 139.381l1.743-.05-3.104-108.036-121.622-44.9008L2.14807-5.72187z" fill="#47525E"/><defs><linearGradient id="paint0_linear" x1="467.397" y1="21.5562" x2="569.289" y2="216.172" gradientUnits="userSpaceOnUse"><stop stop-color="#1565FF" stop-opacity=".72"/><stop offset="1" stop-color="#1565FF" stop-opacity=".8"/></linearGradient><linearGradient id="paint1_linear" x1="43515.9" y1="-19309" x2="42997.5" y2="-20299" gradientUnits="userSpaceOnUse"><stop stop-color="gray" stop-opacity=".25"/><stop offset=".54" stop-color="gray" stop-opacity=".12"/><stop offset="1" stop-color="gray" stop-opacity=".1"/></linearGradient><linearGradient id="paint2_linear" x1="13209.6" y1="-4073.52" x2="12488.3" y2="-5451.2" gradientUnits="userSpaceOnUse"><stop stop-color="gray" stop-opacity=".25"/><stop offset=".54" stop-color="gray" stop-opacity=".12"/><stop offset="1" stop-color="gray" stop-opacity=".1"/></linearGradient><linearGradient id="paint3_linear" x1="18436.9" y1="3034.41" x2="16791.5" y2="-108.3" gradientUnits="userSpaceOnUse"><stop stop-color="gray" stop-opacity=".25"/><stop offset=".54" stop-color="gray" stop-opacity=".12"/><stop offset="1" stop-color="gray" stop-opacity=".1"/></linearGradient><linearGradient id="paint4_linear" x1="21760.7" y1="9297.36" x2="20115.2" y2="6154.35" gradientUnits="userSpaceOnUse"><stop stop-color="gray" stop-opacity=".25"/><stop offset=".54" stop-color="gray" stop-opacity=".12"/><stop offset="1" stop-color="gray" stop-opacity=".1"/></linearGradient><linearGradient id="paint5_linear" x1="8692.72" y1="1952.76" x2="8252.09" y2="1111.16" gradientUnits="userSpaceOnUse"><stop stop-color="gray" stop-opacity=".25"/><stop offset=".54" stop-color="gray" stop-opacity=".12"/><stop offset="1" stop-color="gray" stop-opacity=".1"/></linearGradient><linearGradient id="paint6_linear" x1="508.523" y1="11.0842" x2="517.062" y2="167.924" gradientUnits="userSpaceOnUse"><stop stop-color="#1565FF" stop-opacity=".72"/><stop offset="1" stop-color="#1565FF" stop-opacity=".8"/></linearGradient><clipPath id="clip0"><path fill="#fff" transform="rotate(-3.116 71.24658004 -6806.64332212)" d="M0 0h274.559v265.843H0z"/></clipPath></defs></svg>