<svg width="430" height="303" fill="none" xmlns="http://www.w3.org/2000/svg"><g clip-path="url(#clip0)"><path opacity=".1" d="M372.627 303c13.649 0 24.713-2.938 24.713-6.563 0-3.624-11.064-6.563-24.713-6.563-13.649 0-24.713 2.939-24.713 6.563 0 3.625 11.064 6.563 24.713 6.563zM413.384 268.42c-9.402 7.803-22.782 11.032-35.722 13.072l-2.178.332c-13.515 2.017-27.18 3.09-40.892 3.743-7.337.356-14.673.607-22.01.831l-5.75.17c-7.465.221-14.945.439-22.439.653-7.336.208-14.673.404-22.01.587-9.396.229-18.792.419-28.188.571-7.337.116-14.673.196-22.01.24-9.399.054-18.795.036-28.188-.054-7.342-.075-14.679-.204-22.011-.387-9.401-.242-18.797-.596-28.188-1.062-6.374-.311-12.744-.686-19.11-1.124l-2.9-.205c-27.3273-1.97-55.1449-5.504-79.0587-16.675l-.6449-.305c-.3205-.151-.641-.302-.9615-.46-4.3907-2.1-8.5966-4.567-12.5728-7.374-7.0702-5.045-12.90868-11.202-15.99396-18.507-4.8345-11.457-2.278236-24.335 3.2436-35.537 5.52186-11.202 13.81226-21.315 20.98296-31.864 2.1006-3.09 4.0931-6.296 5.9466-9.584 11.5842-20.615 17.33-44.472 5.1859-64.338-1.603-2.533-3.3339-4.9826-5.1859-7.3394-2.9617-3.8627-5.9736-7.7255-8.0086-12.0016-4.7457-9.9505-3.7263-21.141-1.9964-31.7713 2.3169-14.1339 6.5645-29.3571 19.84-38.1874C56.338 2.67304 75.8884 3.13657 92.9829 6.43538 119.561 11.5304 144.093 22.1955 168.856 31.8138c24.763 9.6183 50.704 18.4139 77.931 19.3602 5.849.2003 11.704-.0127 17.523-.6373 7.757-.7974 15.409-2.4094 22.829-4.8092 10.715-3.5305 20.465-8.8419 27.694-16.2236 15.504-15.7795 44.638-16.9731 65.644-7.4436 20.045 9.093 33.008 28.3373 32.05 47.5585-1.089 21.3959-17.106 38.9872-31.783 57.0302-1.78 2.186-3.537 4.38-5.248 6.59-.955 1.233-1.892 2.469-2.811 3.708-1.61 2.186-3.167 4.384-4.634 6.609-7.499 11.407-12.8 25.108-7.638 37.423 2.896 6.895 8.422 12.156 15.083 16.749 14.924 10.286 35.525 17.208 44.792 31.609 7.986 12.411 5.028 29.164-6.904 39.083z" fill="#3ABEF6"/><g opacity=".1"><path opacity=".1" d="M214.502 212.202c.015.363.042.718.081 1.066 3.004-1.198 5.953-2.485 8.846-3.863 1.544-.205 2.98-.907 4.09-2.001.845-.425 1.687-.869 2.521-1.313-.189-.4-.403-.787-.641-1.159-1.626-2.569-4.097-4.176-6.819-4.087-2.723.089-5.078 1.854-6.534 4.516-1.117 2.101-1.65 4.463-1.544 6.841z" fill="#3F3D56"/><path opacity=".1" d="M214.058 198.693c.058 2.368.744 4.676 1.988 6.691 1.63 2.561 4.101 4.168 6.824 4.079.189 0 .386-.027.559-.043 1.545-.205 2.98-.907 4.09-2.001.753-.716 1.387-1.548 1.88-2.464 1.09-2.103 1.621-4.45 1.544-6.817-.077-2.367-.76-4.675-1.984-6.703-1.63-2.568-4.101-4.175-6.823-4.087-2.722.089-5.074 1.855-6.53 4.516-1.116 2.098-1.65 4.456-1.548 6.829z" fill="#3F3D56"/><path opacity=".1" d="M222.424 195.956c4.662-.153 8.278-5.226 8.078-11.331-.201-6.104-4.142-10.929-8.803-10.776-4.662.153-8.278 5.226-8.078 11.331.2 6.104 4.142 10.929 8.803 10.776z" fill="#3F3D56"/><path opacity=".1" d="M221.981 182.45c4.662-.153 8.278-5.226 8.078-11.33-.2-6.105-4.142-10.929-8.803-10.776-4.662.153-8.278 5.226-8.078 11.33.2 6.105 4.142 10.929 8.803 10.776z" fill="#3F3D56"/><path opacity=".1" d="M221.539 168.94c4.661-.153 8.278-5.225 8.077-11.33-.2-6.104-4.141-10.929-8.803-10.776-4.661.153-8.278 5.226-8.078 11.33.201 6.105 4.142 10.93 8.804 10.776z" fill="#3F3D56"/><path opacity=".1" d="M249.753 64.4195c1.105-1.5059 2.103-3.0871 2.988-4.7319l-22.295-2.9125 23.987-.6103c2.136-5.0819 3.214-10.5464 3.166-16.0592-.048-5.5128-1.22-10.9579-3.444-16.0019l-31.629 17.7495 28.961-22.7904c-2.949-4.6923-6.83-8.7286-11.402-11.85864-4.572-3.13006-9.738-5.28714-15.178-6.337464-5.44-1.050325-11.038-.971503-16.446.231574-5.408 1.20308-10.511 3.50477-14.994 6.76233-4.482 3.2576-8.247 7.4015-11.063 12.175-2.815 4.7734-4.62 10.0745-5.303 15.5745-.682 5.5-.228 11.0817 1.335 16.3989 1.562 5.3172 4.2 10.2566 7.75 14.5119-1.721 2.3445-3.185 4.8672-4.367 7.5246l29.273 14.0142-31.03-9.2938c-1.946 6.4434-2.255 13.2704-.899 19.8633 1.356 6.5928 4.334 12.7438 8.664 17.8948-4.492 6.12-7.172 13.381-7.734 20.953-.562 7.572 1.018 15.149 4.558 21.866 3.54 6.716 8.899 12.3 15.462 16.113 6.563 3.814 14.066 5.703 21.652 5.452 7.586-.252 14.948-2.633 21.245-6.873 6.296-4.239 11.273-10.166 14.362-17.102 3.088-6.935 4.163-14.601 3.102-22.119-1.061-7.518-4.216-14.586-9.103-20.395 5.371-7.309 8.132-16.2123 7.838-25.2796-.293-9.0674-3.623-17.7732-9.456-24.7199z" fill="#3ABEF6"/><path opacity=".1" d="M178.355 91.7912c.282 9.0728 3.62 17.7848 9.472 24.7218-4.493 6.119-7.175 13.38-7.738 20.951-.563 7.572 1.015 15.15 4.554 21.866 3.539 6.717 8.896 12.302 15.459 16.117 6.562 3.815 14.066 5.705 21.652 5.455 7.585-.249 14.948-2.63 21.245-6.868 6.298-4.239 11.276-10.164 14.365-17.1 3.09-6.935 4.166-14.6 3.106-22.118-1.06-7.518-4.213-14.587-9.099-20.397 5.193-7.053-73.163-27.1666-73.016-22.6278z" fill="#000"/></g><g opacity=".1"><path opacity=".1" d="M125.952 283.358c0 .255-.027.51-.058.772-2.137-.849-4.236-1.76-6.298-2.731-1.099-.143-2.121-.641-2.912-1.417-.602-.307-1.201-.618-1.795-.935.134-.283.286-.556.455-.819 1.159-1.831 2.912-2.974 4.85-2.913 1.939.062 3.615 1.314 4.634 3.207.798 1.483 1.186 3.152 1.124 4.836z" fill="#3F3D56"/><path opacity=".1" d="M126.253 273.743c-.038 1.685-.523 3.328-1.406 4.763-1.158 1.823-2.915 2.971-4.85 2.909l-.386-.031c-1.098-.144-2.12-.641-2.911-1.418-.537-.509-.99-1.101-1.34-1.753-.775-1.495-1.153-3.164-1.101-4.847.053-1.683.536-3.324 1.402-4.768 1.159-1.831 2.915-2.974 4.85-2.912 1.935.061 3.614 1.313 4.653 3.206.789 1.491 1.165 3.166 1.089 4.851z" fill="#3F3D56"/><path opacity=".1" d="M126.565 264.147c.137-4.344-2.44-7.95-5.757-8.055-3.317-.105-6.117 3.332-6.254 7.675-.137 4.343 2.44 7.949 5.757 8.054 3.317.105 6.117-3.331 6.254-7.674z" fill="#3F3D56"/><path opacity=".1" d="M126.865 254.534c.137-4.344-2.44-7.95-5.757-8.055-3.317-.104-6.117 3.332-6.254 7.675-.137 4.344 2.44 7.95 5.757 8.055 3.317.104 6.117-3.332 6.254-7.675z" fill="#3F3D56"/><path opacity=".1" d="M127.169 244.917c.137-4.343-2.44-7.949-5.757-8.054-3.317-.105-6.117 3.331-6.254 7.674-.137 4.344 2.44 7.95 5.757 8.055 3.317.105 6.117-3.331 6.254-7.675z" fill="#3F3D56"/><path opacity=".1" d="M100.748 178.221c-.7872-1.072-1.5006-2.196-2.1352-3.365l15.8632-2.109-17.0718-.386c-1.5257-3.615-2.2976-7.504-2.2684-11.428.0292-3.924.8589-7.801 2.4383-11.393l22.5239 12.604-20.6279-16.204c2.0879-3.355 4.8429-6.244 8.0949-8.487 3.252-2.244 6.93-3.793 10.807-4.553 3.876-.76 7.867-.713 11.725.137 3.857.85 7.499 2.485 10.698 4.804 3.198 2.318 5.885 5.271 7.894 8.673 2.009 3.402 3.296 7.182 3.781 11.104.486 3.921.159 7.901-.959 11.69-1.119 3.79-3.005 7.309-5.542 10.338 1.229 1.667 2.274 3.462 3.116 5.354l-20.82 9.997 22.075-6.644c1.39 4.585 1.615 9.444.657 14.138-.959 4.693-3.072 9.074-6.148 12.747 3.204 4.35 5.119 9.515 5.527 14.903.408 5.388-.708 10.782-3.22 15.565-2.513 4.784-6.32 8.763-10.986 11.484-4.667 2.721-10.005 4.074-15.404 3.903-5.399-.17-10.64-1.857-15.126-4.867-4.486-3.011-8.0341-7.223-10.2395-12.155-2.2054-4.933-2.9788-10.387-2.2318-15.738.7469-5.352 2.9841-10.385 6.4558-14.525-3.8281-5.198-5.7985-11.533-5.5948-17.986.2038-6.453 2.57-12.651 6.7183-17.597v-.004z" fill="#3ABEF6"/><path opacity=".1" d="M151.564 197.635c-.193 6.457-2.559 12.659-6.715 17.603 3.204 4.35 5.119 9.515 5.527 14.903.408 5.388-.708 10.782-3.22 15.565-2.513 4.784-6.32 8.763-10.986 11.484-4.667 2.721-10.005 4.074-15.404 3.903-5.399-.17-10.64-1.857-15.126-4.867-4.486-3.011-8.0341-7.223-10.2395-12.155-2.2054-4.933-2.9788-10.387-2.2318-15.738.7469-5.352 2.9841-10.385 6.4558-14.524-3.7031-5.022 52.0485-19.407 51.9395-16.174z" fill="#000"/></g><g opacity=".1"><path opacity=".1" d="M327.043 233.122c0 .259-.027.51-.054.773-2.139-.85-4.239-1.76-6.298-2.731-1.1-.144-2.123-.642-2.915-1.418-.599-.305-1.201-.618-1.796-.934.136-.282.288-.556.456-.819 1.158-1.831 2.911-2.975 4.85-2.913 1.938.062 3.614 1.313 4.633 3.206.798 1.483 1.186 3.153 1.124 4.836z" fill="#3F3D56"/><path opacity=".1" d="M327.367 223.508c-.039 1.684-.525 3.328-1.409 4.763-1.158 1.823-2.912 2.97-4.85 2.908l-.386-.031c-1.1-.144-2.123-.641-2.915-1.417-.536-.511-.988-1.103-1.34-1.754-.775-1.495-1.154-3.163-1.101-4.846.053-1.683.535-3.325 1.402-4.768 1.158-1.827 2.915-2.975 4.85-2.913 1.934.062 3.618 1.314 4.653 3.206.791 1.491 1.17 3.166 1.096 4.852z" fill="#3F3D56"/><path opacity=".1" d="M327.669 213.908c.137-4.343-2.44-7.949-5.757-8.054-3.317-.105-6.117 3.331-6.254 7.674-.137 4.344 2.44 7.95 5.757 8.055 3.317.105 6.117-3.331 6.254-7.675z" fill="#3F3D56"/><path opacity=".1" d="M327.973 204.295c.137-4.343-2.44-7.949-5.757-8.054-3.317-.105-6.116 3.331-6.254 7.675-.137 4.343 2.441 7.949 5.757 8.054 3.317.105 6.117-3.331 6.254-7.675z" fill="#3F3D56"/><path opacity=".1" d="M328.277 194.683c.137-4.344-2.44-7.95-5.757-8.055-3.317-.105-6.117 3.332-6.254 7.675-.137 4.343 2.44 7.95 5.757 8.054 3.317.105 6.117-3.331 6.254-7.674z" fill="#3F3D56"/><path opacity=".1" d="M301.839 127.985c-.788-1.07-1.5-2.194-2.131-3.364l15.863-2.09-17.072-.413c-1.525-3.616-2.296-7.504-2.268-11.428.029-3.924.857-7.801 2.434-11.3935l22.524 12.6045-20.628-16.1969c2.084-3.3628 4.838-6.26 8.091-8.5109 3.253-2.2508 6.935-3.8069 10.815-4.5713 3.881-.7643 7.878-.7205 11.741.1288 3.863.8492 7.509 2.4857 10.712 4.8073 3.203 2.3216 5.893 5.2785 7.902 8.6863 2.01 3.4078 3.296 7.1937 3.779 11.1207.482 3.927.15 7.911-.975 11.704-1.125 3.793-3.02 7.314-5.565 10.342 1.227 1.667 2.27 3.462 3.112 5.354l-20.821 9.996 22.076-6.644c1.391 4.584 1.618 9.443.659 14.137-.959 4.694-3.073 9.074-6.15 12.744 3.204 4.35 5.12 9.514 5.528 14.902.408 5.387-.707 10.781-3.219 15.564-2.512 4.784-6.318 8.763-10.985 11.484-4.666 2.721-10.003 4.074-15.402 3.903-5.398-.17-10.64-1.857-15.125-4.868-4.485-3.01-8.033-7.222-10.238-12.154-2.205-4.933-2.978-10.386-2.23-15.737.748-5.351 2.985-10.384 6.458-14.523-3.829-5.198-5.799-11.533-5.595-17.986.204-6.454 2.57-12.651 6.718-17.598h-.008z" fill="#3ABEF6"/><path opacity=".1" d="M352.66 147.4c-.194 6.456-2.561 12.657-6.719 17.598 3.203 4.35 5.118 9.514 5.526 14.902.408 5.387-.708 10.78-3.22 15.563-2.511 4.783-6.318 8.763-10.984 11.483-4.666 2.721-10.004 4.073-15.402 3.903-5.398-.171-10.639-1.858-15.124-4.868-4.485-3.01-8.033-7.221-10.238-12.153s-2.978-10.386-2.231-15.736c.747-5.351 2.984-10.384 6.455-14.523-3.707-5.018 52.037-19.406 51.937-16.169z" fill="#000"/></g><path d="M74.7185 294.286c12.158 0 22.014-1.896 22.014-4.234s-9.856-4.234-22.014-4.234c-12.1579 0-22.0139 1.896-22.0139 4.234s9.856 4.234 22.0139 4.234z" fill="#3ABEF6"/><path d="M74.3518 291.609c1.4161 0 2.564-1.503 2.564-3.357 0-1.854-1.1479-3.357-2.564-3.357-1.416 0-2.564 1.503-2.564 3.357 0 1.854 1.148 3.357 2.564 3.357z" fill="#3F3D56"/><path d="M74.3518 287.506c1.4161 0 2.564-1.502 2.564-3.356 0-1.854-1.1479-3.357-2.564-3.357-1.416 0-2.564 1.503-2.564 3.357 0 1.854 1.148 3.356 2.564 3.356z" fill="#3F3D56"/><path d="M74.3518 283.404c1.4161 0 2.564-1.503 2.564-3.357 0-1.854-1.1479-3.356-2.564-3.356-1.416 0-2.564 1.502-2.564 3.356 0 1.854 1.148 3.357 2.564 3.357z" fill="#3F3D56"/><path d="M74.3518 279.302c1.4161 0 2.564-1.503 2.564-3.357 0-1.854-1.1479-3.357-2.564-3.357-1.416 0-2.564 1.503-2.564 3.357 0 1.854 1.148 3.357 2.564 3.357z" fill="#3F3D56"/><path d="M74.3518 275.2c1.4161 0 2.564-1.503 2.564-3.357 0-1.854-1.1479-3.357-2.564-3.357-1.416 0-2.564 1.503-2.564 3.357 0 1.854 1.148 3.357 2.564 3.357z" fill="#3F3D56"/><path d="M74.3518 271.097c1.4161 0 2.564-1.503 2.564-3.356 0-1.854-1.1479-3.357-2.564-3.357-1.416 0-2.564 1.503-2.564 3.357 0 1.853 1.148 3.356 2.564 3.356z" fill="#3F3D56"/><path d="M74.3518 266.995c1.4161 0 2.564-1.503 2.564-3.357 0-1.854-1.1479-3.356-2.564-3.356-1.416 0-2.564 1.502-2.564 3.356 0 1.854 1.148 3.357 2.564 3.357z" fill="#3F3D56"/><path d="M83.9473 235.564c.3495-.447.6682-.917.9538-1.406l-6.7343-1.109 7.2826.058c.6984-1.521 1.0796-3.169 1.1201-4.843.0404-1.674-.2605-3.338-.8845-4.891l-9.7733 5.072 9.0126-6.641c-.8451-1.458-1.9812-2.727-3.3376-3.727-1.3565-1.001-2.9043-1.711-4.547-2.087-1.6427-.376-3.3453-.41-5.0017-.099-1.6563.31-3.2311.958-4.6261 1.904-1.3951.946-2.5807 2.169-3.4829 3.593-.9022 1.423-1.5018 3.018-1.7614 4.683-.2597 1.666-.1738 3.367.2523 4.999.426 1.631 1.1831 3.156 2.2242 4.482-.5446.695-1.0132 1.446-1.3979 2.24l8.7423 4.543-9.3215-3.129c-.6548 1.936-.8169 4.004-.4717 6.018.3452 2.014 1.1868 3.91 2.4488 5.517-1.424 1.812-2.3096 3.988-2.5556 6.28-.246 2.291.1575 4.606 1.1645 6.679 1.007 2.073 2.5767 3.821 4.5298 5.044 1.9531 1.223 4.2107 1.872 6.5148 1.872 2.3042 0 4.5618-.649 6.5149-1.872s3.5228-2.971 4.5298-5.044c1.0069-2.073 1.4105-4.388 1.1645-6.679-.246-2.292-1.1316-4.468-2.5556-6.28 1.7011-2.166 2.6258-4.84 2.6258-7.595 0-2.754-.9247-5.428-2.6258-7.594l-.0039.012z" fill="#3ABEF6"/><path opacity=".1" d="M62.0183 243.158c-.0045 2.755.9207 5.431 2.6258 7.594-1.424 1.812-2.3096 3.988-2.5556 6.28-.246 2.292.1576 4.607 1.1645 6.68 1.007 2.073 2.5767 3.821 4.5298 5.044 1.9531 1.223 4.2107 1.871 6.5148 1.871 2.3042 0 4.5618-.648 6.5149-1.871 1.9531-1.223 3.5228-2.971 4.5298-5.044 1.0069-2.073 1.4105-4.388 1.1645-6.68s-1.1316-4.468-2.5556-6.28c1.6411-2.09-21.9329-8.973-21.9329-7.594z" fill="#000"/><path d="M133.798 199.787v87.298c-6.374-.311-12.744-.686-19.11-1.124l-2.9-.204v-85.97c0-.448.088-.891.259-1.304.171-.413.422-.789.739-1.105.316-.317.691-.568 1.105-.739.413-.171.856-.259 1.303-.259h15.198c.448 0 .891.088 1.304.259.413.171.788.422 1.105.739.316.316.567.692.738 1.105.171.413.259.856.259 1.304zM161.987 288.171V141.459c0-.904.358-1.77.997-2.409.639-.639 1.505-.998 2.408-.998h15.199c.447 0 .89.088 1.303.259.413.171.789.422 1.105.739.316.316.567.692.738 1.105.172.413.26.856.26 1.304v147.094l-22.01-.382zM212.185 288.63V171.975c0-.904.359-1.771.998-2.409.638-.639 1.505-.998 2.408-.998h15.198c.904 0 1.77.359 2.409.998.638.638.997 1.505.997 2.409v116.404l-22.01.251zM284 112.947v174.545c-7.333.181-14.667.35-22 .508V112.947c0-.781.359-1.531.997-2.084.638-.552 1.504-.863 2.407-.863h15.192c.903 0 1.769.311 2.407.863.638.553.997 1.303.997 2.084zM334.592 126.008V285.54c-7.337.356-14.673.607-22.01.831V126.008c0-.904.359-1.771.998-2.409.638-.639 1.505-.998 2.408-.998h15.198c.904 0 1.77.359 2.409.998.638.638.997 1.505.997 2.409z" fill="#3F3D56"/><path d="M122.793 159.691c5.971 0 10.812-4.842 10.812-10.816 0-5.973-4.841-10.816-10.812-10.816-5.971 0-10.812 4.843-10.812 10.816 0 5.974 4.841 10.816 10.812 10.816zM369.812 142.632c5.971 0 10.812-4.843 10.812-10.816 0-5.974-4.841-10.816-10.812-10.816-5.971 0-10.812 4.842-10.812 10.816 0 5.973 4.841 10.816 10.812 10.816z" fill="#3ABEF6"/><path opacity=".1" d="M90.2336 280.349c3.9837 0 7.2132-.547 7.2132-1.221s-3.2295-1.221-7.2132-1.221-7.2131.547-7.2131 1.221 3.2294 1.221 7.2131 1.221z" fill="#3ABEF6"/><path d="M85.3916 273.461s4.1124-.127 5.3519-1.012c1.2395-.884 6.3289-1.931 6.6378-.521.3089 1.41 6.1787 7.046 1.5446 7.084-4.6337.039-10.7927-.726-12.0283-1.479-1.2357-.754-1.506-4.072-1.506-4.072z" fill="#A8A8A8"/><path opacity=".2" d="M98.9992 278.518c-4.6337.038-10.7888-.723-12.0283-1.476-.9422-.575-1.3167-2.634-1.4441-3.584h-.1352s.2587 3.318 1.4982 4.071c1.2395.753 7.3831 1.518 12.0284 1.479 1.3398 0 1.8028-.486 1.7758-1.193-.185.429-.6947.695-1.6948.703z" fill="#000"/><path opacity=".1" d="M410.778 291.721c7.317 0 13.248-1.003 13.248-2.241 0-1.237-5.931-2.24-13.248-2.24-7.317 0-13.249 1.003-13.249 2.24 0 1.238 5.932 2.241 13.249 2.241z" fill="#3ABEF6"/><path d="M401.893 279.07s7.557-.232 9.835-1.854c2.278-1.622 11.623-3.558 12.187-.958.563 2.6 11.36 12.94 2.826 13.01-8.534.069-19.824-1.329-22.099-2.704-2.274-1.375-2.749-7.494-2.749-7.494z" fill="#A8A8A8"/><path opacity=".2" d="M426.884 288.364c-8.534.069-19.825-1.329-22.099-2.704-1.73-1.055-2.421-4.84-2.653-6.567h-.251s.479 6.1 2.749 7.482c2.271 1.383 13.569 2.786 22.099 2.704 2.464 0 3.313-.896 3.267-2.194-.344.773-1.282 1.263-3.112 1.279z" fill="#000"/><path d="M328.066 133.104c.072.676.34 1.317.772 1.842.56.634 1.398.923 2.151 1.302 1.949.998 3.437 2.709 4.155 4.778 1.286 3.755 1.452 7.726 3.089 11.349s3.56 7.104 4.974 10.816c.803 2.105 1.444 4.295 2.622 6.211.57.942 1.297 1.78 2.15 2.476-.088 1.36-.123 2.704-.115 4.064.261-.005.518.056.749.177.231.122.428.3.571.518.286.44.483.933.579 1.449.529 2.19-.123 4.523.352 6.725 1.305 6.124.904 12.49-1.159 18.402-.529 1.499-1.193 6.458-.629 7.946 2.101-.213 3.962 1.077 5.927 1.931.159 1.165.064 2.351-.278 3.477-.706 2.035-.703 4.249-.691 6.4l.097 15.938c0 2.02.027 4.067.532 6.026.576 2.206 1.784 4.454 1.746 6.733-.104 4.905 2.212 9.579 2.027 14.447-.035.934-.162 1.861-.251 2.788-.228 2.47-.166 4.958.185 7.413.703 4.89 2.561 9.7 2.097 14.617-.031.332-.143.772-.456.9.387.436.796.869 1.213 1.282-.084.141-.199.261-.336.352-.456.238-.961.37-1.475.386-.604.016-1.19.206-1.687.549-.362.347-.608.797-.703 1.29-.138.486-.167.997-.087 1.496.08.499.268.974.55 1.393.345.434.796.772 1.309.981 1.784.773 3.831.213 5.692-.351l7.29-2.21c.445-.092.855-.306 1.186-.618.151-.178.251-.395.289-.626 1.611.387 3.379-.088 5.02-.579l7.291-2.213c.445-.091.856-.305 1.185-.618.131-.16.226-.347.277-.547.052-.2.058-.409.02-.612.054-.023.108-.039.162-.066.557-.251 1.159-.742 1.024-1.333-.097-.386-.483-.61-.649-.965-.078-.231-.094-.479-.047-.718.048-.239.157-.462.317-.646.286-.386.672-.707.935-1.112.842-1.29.27-2.986-.047-4.497-.683-3.225-.05-6.593-.482-9.861-.147-1.101-.413-2.183-.626-3.276-.45-2.584-.748-5.192-.892-7.81-.278-3.74-1.317-7.425-.722-11.133.289-2.176.412-4.372.367-6.567.042-1.398-.019-2.797-.181-4.187-.151-1.035-.418-2.051-.533-3.09-.094-1.168-.115-2.341-.062-3.511.053-2.61-.188-5.217-.718-7.772-.773-3.512-2.225-6.872-2.842-10.391.208.046.417.093.617.147.024-2.704-2.343-8.583-3.22-11.148-.128-.314-.206-.647-.232-.985.053-.447.135-.889.244-1.325.112-.935-.387-1.823-.522-2.758-.052-.658-.004-1.32.143-1.963.622-3.457 1.394-6.887 2.166-10.313.337-1.241.453-2.532.344-3.813-.09-.679-.033-1.369.167-2.024s.538-1.26.992-1.773c.339-.313.628-.676.857-1.078.128-.344.186-.71.17-1.077-.016-1.589-.25-3.168-.695-4.694.679-1.232.93-2.746 1.127-4.175.433-3.156.865-6.327.85-9.514.034-1.7-.201-3.395-.695-5.022-.362-1.005-.804-1.978-1.321-2.912-2.031-3.913-3.973-8.031-6.537-11.616-.773-1.089-.286-2.592-.232-3.936.058-1.622-.583-3.179-1.213-4.67-.321-.918-.813-1.766-1.451-2.499-.216-.238-.478-.429-.77-.562-.292-.133-.609-.204-.929-.211-.364.045-.714.167-1.026.358-.313.191-.58.447-.785.751-.467.636-.804 1.359-.99 2.126-.186.767-.219 1.563-.096 2.343.257 1.561.937 3.021 1.966 4.222.497.604 1.066 1.145 1.695 1.611.639 2.029 1.282 4.057 1.931 6.084 1.019 3.225 2.039 6.466 3.475 9.518.421.884.884 1.784.935 2.762.054 1.054-.387 2.058-.738 3.051-.74 2.069-1.16 4.239-1.243 6.435-.113.051-.222.11-.325.178-1.216.796-1.598 2.53-2.865 3.241-.737.413-1.633.386-2.46.576-.073 0-.146.038-.224.061-.03-.154-.061-.305-.081-.463-.012-.099-.012-.199 0-.298 1.969-1.082 3.623-2.658 4.8-4.573.248-.355.44-.746.568-1.159.104-.495.124-1.005.058-1.506-.065-1.675-.304-3.339-.715-4.964-.412-1.633-1.313-3.101-2.583-4.207-.633-.51-1.363-.892-1.993-1.406-1.227-.992-2.069-2.46-3.475-3.198-.894-.436-1.915-.538-2.878-.289-.963.249-1.806.834-2.377 1.649-.187.376-.45.711-.772.981-.246.116-.486.245-.719.386-.424.34-.448.993-.309 1.522.264 1.087.411 2.2.441 3.318-1.247 1.463-1.933 3.321-1.937 5.243-.005 1.923.674 3.784 1.913 5.252 0 .719 0 1.437-.027 2.156 0 .135 0 .274-.027.409-.445-.155-.844-.421-1.158-.772-.433-.541-.51-1.337-1.039-1.781-.38-.251-.814-.41-1.266-.464-1.125-.255-2.179-.755-3.089-1.464-.715-.552-1.456-1.259-2.29-1.421-1.439-2.701-3.12-5.266-5.02-7.664-.482-.568-.921-1.171-1.313-1.804-.83-1.448-1.077-3.152-1.602-4.739-1.468-4.45-5.128-8.02-6.02-12.624-.325-1.669-1.383-3.121-2.109-4.659-.49-1.039-1.031-2.136-2.012-2.73-1.262-.773-3.008-.418-4.058.621-.508.544-.886 1.196-1.103 1.908-.218.712-.27 1.464-.152 2.199zm45.847 156.322c-.457.239-.961.371-1.475.386-.26.028-.518.069-.773.124-.096-.811-.15-1.634-.212-2.433-.205-2.623-.614-5.227-1.019-7.826-.425-2.704-.626-5.663-1.545-8.259-1.479-4.226-2.977-8.579-2.788-13.056.043-1.016.17-2.024.224-3.036.124-2.507-.228-5.068.386-7.506.274-1.108.742-2.167.919-3.295.114-1.018.126-2.046.039-3.067-.169-3.544.126-7.096.876-10.564.719.938.954 2.151 1.159 3.314l1.448 7.857c.861 4.662 1.622 9.606 3.904 13.755-.321 1.495-.637 3.09-.108 4.52.227.618.602 1.158.834 1.784.386 1.039.332 2.183.448 3.283.251 2.318 1.208 4.597.505 6.834-.722 2.306-1.192 4.684-1.401 7.092-.039.669-.116 1.336-.232 1.997-.124.595-.324 1.159-.436 1.769-.155.856-.116 1.737.112 2.576.173.466.28.954.316 1.449 0 .494-.606.85-1.092.927.142.185.297.363.455.537-.093.328-.283.62-.544.838z" fill="url(#paint0_linear)"/><path d="M358.664 293.884c-.603.016-1.19.206-1.687.548-.363.343-.609.792-.703 1.283-.137.482-.167.989-.086 1.484.08.496.267.967.549 1.382.345.433.796.77 1.309.977 1.784.773 3.831.209 5.692-.351l7.29-2.194c.445-.091.855-.304 1.186-.614.201-.271.311-.597.317-.934.006-.337-.095-.667-.286-.944-.392-.545-.926-.971-1.545-1.232-2.266-1.105-4.823-1.356-7.313-1.402-.927 0-1.842-.224-2.472.49-.332.387-.27.8-.772 1.128-.459.235-.964.364-1.479.379z" fill="#3F3D56"/><path d="M372.438 289.874c-.604.018-1.189.208-1.688.549-.362.344-.608.792-.702 1.282-.137.484-.167.991-.087 1.487.081.495.268.968.55 1.383.346.431.797.766 1.309.974 1.788.772 3.831.212 5.692-.348l7.29-2.198c.445-.091.855-.303 1.186-.614.2-.27.311-.596.316-.932.006-.336-.094-.665-.285-.941-.393-.545-.927-.971-1.545-1.233-2.271-1.104-4.827-1.359-7.317-1.406-.927 0-1.839-.22-2.472.495-.332.386-.27.795-.772 1.124-.456.237-.961.367-1.475.378z" fill="#3F3D56"/><path d="M366.101 210.726c4.297-.432 8.618-.553 12.932-.363.285-.003.568.041.838.131.95.387 1.097 1.63 1.186 2.646.386 4.126 2.185 7.969 3.089 12.01.53 2.539.771 5.131.718 7.725-.052 1.159-.032 2.32.062 3.477.116 1.031.386 2.043.533 3.071.163 1.38.223 2.77.181 4.16.044 2.178-.078 4.357-.367 6.516-.594 3.682.444 7.34.722 11.063.139 2.605.432 5.199.877 7.768.212 1.086.479 2.16.625 3.253.433 3.248-.2 6.594.483 9.8.317 1.498.888 3.183.046 4.465-.262.386-.648.715-.934 1.105-.16.182-.27.403-.317.641-.048.238-.032.485.047.715.166.351.552.583.648.958.151.591-.467 1.073-1.023 1.325-4.189 1.892-9.592.56-12.418-3.068.486-.077 1.081-.428 1.093-.923-.038-.491-.144-.975-.317-1.437-.227-.833-.266-1.707-.112-2.557.112-.595.313-1.159.436-1.757.116-.657.194-1.32.232-1.986.209-2.393.679-4.755 1.402-7.046.702-2.221-.255-4.469-.506-6.786-.116-1.098-.066-2.229-.448-3.265-.232-.61-.606-1.158-.834-1.769-.529-1.425-.213-3.009.108-4.492-2.282-4.122-3.043-9.035-3.904-13.667l-1.448-7.802c-.216-1.159-.452-2.361-1.158-3.295-.751 3.445-1.046 6.973-.877 10.495.088 1.015.075 2.035-.039 3.048-.177 1.12-.644 2.174-.919 3.271-.598 2.422-.247 4.964-.386 7.455-.054 1.009-.181 2.009-.224 3.017-.189 4.45 1.309 8.777 2.788 12.975.908 2.577 1.109 5.505 1.545 8.201.386 2.584.815 5.168 1.019 7.776.189 2.395.274 4.987 1.765 6.868-1.363.884-2.769 1.784-4.363 2.09-1.859.29-3.761-.079-5.376-1.043-1.605-.961-3.041-2.181-4.247-3.612.313-.108.425-.564.456-.892.463-4.891-1.394-9.657-2.097-14.524-.352-2.439-.414-4.91-.186-7.363.089-.923.217-1.846.251-2.773.186-4.833-2.143-9.487-2.058-14.323.039-2.268-1.158-4.501-1.745-6.691-.506-1.931-.521-3.978-.533-5.987l-.097-15.838c0-2.139 0-4.334.692-6.354.849-2.433-.124-5.226-.271-7.799 4.013 1.272 8.236 1.744 12.43 1.387z" fill="#696791"/><path d="M352.335 165.223c-1.623-3.32-3.605-6.451-5.911-9.337-.482-.564-.921-1.163-1.313-1.792-.831-1.441-1.078-3.133-1.603-4.709-1.467-4.419-5.128-7.969-6.02-12.538-.324-1.661-1.382-3.091-2.108-4.636-.491-1.031-1.031-2.12-2.012-2.704-1.263-.772-3.008-.417-4.058.618-.506.539-.88 1.187-1.096 1.893-.216.707-.266 1.453-.148 2.183.073.672.341 1.309.773 1.831.56.629 1.397.915 2.15 1.294 1.946.986 3.435 2.687 4.155 4.747 1.286 3.727 1.452 7.675 3.089 11.275 1.638 3.6 3.561 7.054 4.974 10.735.803 2.09 1.444 4.249 2.622 6.18 1.178 1.932 3.016 3.55 5.236 3.84-.015-1.4.197-2.793.629-4.125.483-1.522 1.34-3.315.641-4.755zM376.241 168.112c-.099-2.731.327-5.456 1.255-8.027.355-.985.772-1.985.738-3.032-.05-.974-.514-1.866-.935-2.747-1.452-3.032-2.471-6.246-3.475-9.452l-1.931-6.045c-.629-.462-1.199-1-1.695-1.603-1.029-1.191-1.709-2.642-1.965-4.195-.124-.774-.091-1.565.095-2.327.187-.761.523-1.478.99-2.108.205-.302.474-.557.786-.748.312-.19.662-.312 1.025-.356.32.007.636.079.928.212.292.132.555.323.771.56.637.727 1.129 1.569 1.452 2.48.629 1.483 1.27 3.028 1.212 4.635-.054 1.337-.552 2.828.232 3.913 2.564 3.562 4.506 7.653 6.537 11.542.518.927.96 1.895 1.321 2.894.496 1.618.73 3.305.695 4.998 0 3.164-.417 6.316-.85 9.452-.274 1.966-.633 4.106-2.12 5.408-1.544-1.978-3.096-3.909-5.066-5.454z" fill="#A0616A"/><path d="M366.418 169.618c4.425 0 8.012-3.588 8.012-8.015 0-4.427-3.587-8.015-8.012-8.015-4.425 0-8.013 3.588-8.013 8.015 0 4.427 3.588 8.015 8.013 8.015z" fill="#A0616A"/><path d="M370.299 170.043c.193 1.449.969 2.747 1.726 3.998.455.773 1.038 1.596 1.93 1.681-2.321 1.218-4.76 2.199-7.278 2.928-.857.287-1.754.432-2.657.428-.765-.057-1.514-.249-2.213-.568-1.527-.665-2.883-1.668-3.966-2.934-1.083-1.266-1.864-2.762-2.285-4.374.997.027 1.995-.05 2.977-.228.561-.043 1.083-.3 1.459-.718.224-.392.329-.84.302-1.29.038-1.337.042-2.677 0-4.014 1.968-.125 3.943.118 5.823.719.772.251 1.544.552 2.316.749.487.124 1.827 0 2.186.282.591.398-.456 2.356-.32 3.341z" fill="#A0616A"/><path d="M366.777 174.914c.088-1.056.506-2.057 1.195-2.862.689-.805 1.614-1.373 2.643-1.622.827-.186 1.722-.163 2.46-.572 1.267-.707 1.649-2.43 2.865-3.222 1.217-.792 2.943-.351 4.001.649 1.058 1.001 1.594 2.426 2.027 3.821.646 1.885.996 3.859 1.039 5.852.016.364-.042.728-.17 1.07-.229.398-.518.759-.858 1.07-.453.508-.791 1.109-.991 1.76-.2.651-.257 1.338-.167 2.014.11 1.272-.007 2.553-.344 3.785-.772 3.407-1.544 6.81-2.166 10.248-.146.633-.194 1.284-.143 1.931.12.931.633 1.812.521 2.743-.109.433-.19.873-.243 1.317.025.336.104.666.232.977.876 2.546 3.243 8.379 3.22 11.075-4.112-1.055-10.174-1.29-14.422-1.309-1.168-.013-2.336.039-3.498.154-2.792.301-5.65 1.116-8.357.363-2.513-.699-4.738-2.704-7.336-2.453-.564-1.475.1-6.4.629-7.891 2.062-5.871 2.463-12.198 1.159-18.283-.475-2.186.177-4.508-.352-6.679-.097-.513-.293-1.003-.579-1.44-.144-.218-.341-.395-.571-.516-.231-.121-.489-.181-.75-.176-.048-3.492.276-6.979.966-10.402.255-1.217.772-2.654 2.019-2.863 1.105-.189 2.031.746 2.919 1.43.911.705 1.966 1.201 3.09 1.452.452.054.886.213 1.266.464.529.44.606 1.232 1.039 1.769.772.962 2.498.88 3.046 1.989.12.33.217.668.29 1.012.259.659.702 1.23 1.274 1.646.86.809 1.907 1.392 3.047 1.699z" fill="#F86D70"/><path d="M359.907 153.082c-.139-.529-.115-1.159.309-1.514.213-.166.491-.228.719-.387.321-.27.583-.602.772-.977.576-.807 1.419-1.383 2.38-1.627.96-.244 1.976-.14 2.868.294 1.393.73 2.235 2.191 3.475 3.176.629.509 1.359.888 1.992 1.398 1.269 1.096 2.17 2.555 2.584 4.179.41 1.614.649 3.266.714 4.929.066.5.046 1.006-.058 1.499-.128.413-.32.804-.568 1.159-1.274 1.931-2.954 3.685-5.058 4.682-2.105.996-4.665 1.158-6.742.116-.209-.085-.389-.229-.518-.414-.118-.282-.146-.593-.081-.892.113-1.181-.12-2.369-.672-3.419-.386-.772-.965-1.437-1.274-2.236-.287-.895-.41-1.835-.363-2.774-.035-2.429.132-4.851-.479-7.192z" fill="#2D293D"/></g><defs><linearGradient id="paint0_linear" x1="388.466" y1="213.133" x2="328.016" y2="213.133" gradientUnits="userSpaceOnUse"><stop stop-color="gray" stop-opacity=".25"/><stop offset=".54" stop-color="gray" stop-opacity=".12"/><stop offset="1" stop-color="gray" stop-opacity=".1"/></linearGradient><clipPath id="clip0"><path fill="#fff" d="M0 0h430v303H0z"/></clipPath></defs></svg>