<svg width="490" height="222" fill="none" xmlns="http://www.w3.org/2000/svg"><path d="M34.064 91.888c3.744 0 6.656 1.2 8.736 3.6 2.112 2.368 3.168 5.632 3.168 9.792 0 2.656-.48 5.008-1.44 7.056-.96 2.016-2.336 3.584-4.128 4.704-1.792 1.12-3.92 1.68-6.384 1.68-3.744 0-6.672-1.184-8.784-3.552-2.112-2.4-3.168-5.696-3.168-9.888 0-2.656.48-4.992 1.44-7.008s2.336-3.584 4.128-4.704c1.824-1.12 3.968-1.68 6.432-1.68zm0 4.656c-3.68 0-5.52 2.912-5.52 8.736 0 3.008.448 5.232 1.344 6.672.928 1.408 2.304 2.112 4.128 2.112 1.824 0 3.184-.72 4.08-2.16.928-1.44 1.392-3.648 1.392-6.624 0-2.976-.464-5.168-1.392-6.576-.896-1.44-2.24-2.16-4.032-2.16zm35.1165-3.936l-.768 4.704h-7.44V118h-6.144V97.312h-7.872v-4.704h22.224zM176.25 158.16v16.66h-13.77V201h-21.25v-26.18H92.61v-14.96l33.32-75.48 18.53 6.97-29.24 66.81h26.18l2.21-28.73h18.87v28.73h13.77zm59.977-33.32c6.006 0 11.446 1.473 16.32 4.42 4.986 2.833 8.896 7.083 11.73 12.75 2.833 5.553 4.25 12.24 4.25 20.06 0 7.933-1.644 15.073-4.93 21.42-3.287 6.233-7.934 11.163-13.94 14.79-5.894 3.513-12.637 5.27-20.23 5.27-14.054 0-24.48-4.93-31.28-14.79-6.687-9.86-10.03-23.403-10.03-40.63 0-12.693 1.87-23.8 5.61-33.32 3.853-9.633 9.293-17.0567 16.32-22.27 7.14-5.3267 15.47-7.99 24.99-7.99 9.406 0 17.736 2.4367 24.99 7.31l-8.16 13.43c-5.214-3.06-10.71-4.59-16.49-4.59-7.254 0-13.09 3.287-17.51 9.86-4.307 6.46-6.744 15.413-7.31 26.86 6.913-8.387 15.47-12.58 25.67-12.58zm-6.8 62.56c5.666 0 9.916-2.21 12.75-6.63 2.946-4.533 4.42-10.653 4.42-18.36 0-7.82-1.36-13.373-4.08-16.66-2.607-3.4-6.46-5.1-11.56-5.1-3.854 0-7.537 1.077-11.05 3.23-3.4 2.04-6.46 4.873-9.18 8.5.226 12.353 1.756 21.307 4.59 26.86 2.946 5.44 7.65 8.16 14.11 8.16zM291.744 98.496c1.696 0 3.232.416 4.608 1.248 1.408.8 2.512 2 3.312 3.6.8 1.568 1.2 3.456 1.2 5.664 0 2.24-.464 4.256-1.392 6.048-.928 1.76-2.24 3.152-3.936 4.176-1.664.992-3.568 1.488-5.712 1.488-3.968 0-6.912-1.392-8.832-4.176-1.888-2.784-2.832-6.608-2.832-11.472 0-3.584.528-6.72 1.584-9.408 1.088-2.72 2.624-4.816 4.608-6.288 2.016-1.504 4.368-2.256 7.056-2.256 2.656 0 5.008.688 7.056 2.064l-2.304 3.792c-1.472-.864-3.024-1.296-4.656-1.296-2.048 0-3.696.928-4.944 2.784-1.216 1.824-1.904 4.352-2.064 7.584 1.952-2.368 4.368-3.552 7.248-3.552zm-1.92 17.664c1.6 0 2.8-.624 3.6-1.872.832-1.28 1.248-3.008 1.248-5.184 0-2.208-.384-3.776-1.152-4.704-.736-.96-1.824-1.44-3.264-1.44-1.088 0-2.128.304-3.12.912-.96.576-1.824 1.376-2.592 2.4.064 3.488.496 6.016 1.296 7.584.832 1.536 2.16 2.304 3.984 2.304zm31.431-13.488c4.416 1.984 6.624 4.864 6.624 8.64 0 1.76-.496 3.36-1.488 4.8-.992 1.408-2.4 2.528-4.224 3.36-1.792.832-3.888 1.248-6.288 1.248-2.368 0-4.432-.4-6.192-1.2-1.76-.832-3.12-1.952-4.08-3.36s-1.44-2.992-1.44-4.752c0-3.712 2.048-6.432 6.144-8.16-3.232-1.76-4.848-4.304-4.848-7.632 0-1.696.464-3.184 1.392-4.464.96-1.312 2.24-2.304 3.84-2.976 1.632-.704 3.408-1.056 5.328-1.056 1.952 0 3.728.32 5.328.96 1.6.64 2.864 1.584 3.792 2.832.96 1.248 1.44 2.736 1.44 4.464 0 3.04-1.776 5.472-5.328 7.296zm-5.232-11.232c-1.44 0-2.576.368-3.408 1.104-.8.736-1.2 1.792-1.2 3.168 0 1.28.384 2.304 1.152 3.072.768.736 2 1.408 3.696 2.016l.912.336c1.248-.768 2.128-1.568 2.64-2.4.544-.864.816-1.888.816-3.072 0-1.312-.4-2.336-1.2-3.072-.8-.768-1.936-1.152-3.408-1.152zm0 24.72c1.76 0 3.136-.448 4.128-1.344.992-.896 1.488-2.064 1.488-3.504 0-1.472-.432-2.624-1.296-3.456-.864-.864-2.4-1.696-4.608-2.496l-1.488-.528c-2.592 1.376-3.888 3.504-3.888 6.384 0 1.536.512 2.752 1.536 3.648 1.024.864 2.4 1.296 4.128 1.296zM287.28 194.264h8.016v3.504h-8.016V203h-6.096v-5.232h-3.408v-3.504h3.408v-3.168h-3.408v-3.984h3.408v-16.416h8.448c4.064 0 7.232.88 9.504 2.64 2.272 1.728 3.408 4.24 3.408 7.536 0 3.488-1.152 6.064-3.456 7.728-2.304 1.664-5.424 2.496-9.36 2.496h-2.448v3.168zm0-19.152v12h2.304c2.144 0 3.792-.48 4.944-1.44 1.152-.96 1.728-2.544 1.728-4.752 0-3.872-2.224-5.808-6.672-5.808h-2.304zm38.973-11.088l5.28 1.2-11.184 42.96-5.328-1.248 11.232-42.912zM371.878 203h-5.856l-.816-10.416c-.128-1.536-.192-3.2-.192-4.992 0-.768.032-2.24.096-4.416l-4.848 17.136h-5.328l-4.656-17.136c.096 1.76.144 3.472.144 5.136 0 .992-.032 2.416-.096 4.272L349.654 203h-5.856l2.208-25.392h7.488l4.128 17.184 4.464-17.184h7.536L371.878 203zm26.588-13.296c0 .32-.048 1.152-.144 2.496h-15.936c.192 2.464.832 4.224 1.92 5.28s2.528 1.584 4.32 1.584c1.12 0 2.176-.176 3.168-.528.992-.384 2.048-.96 3.168-1.728l2.544 3.504c-2.816 2.272-5.952 3.408-9.408 3.408-3.872 0-6.864-1.184-8.976-3.552-2.08-2.368-3.12-5.6-3.12-9.696 0-2.592.448-4.912 1.344-6.96.896-2.08 2.192-3.696 3.888-4.848 1.696-1.184 3.712-1.776 6.048-1.776 3.552 0 6.304 1.136 8.256 3.408 1.952 2.24 2.928 5.376 2.928 9.408zm-6.096-1.776c0-4.448-1.648-6.672-4.944-6.672-1.504 0-2.688.56-3.552 1.68-.832 1.088-1.328 2.848-1.488 5.28h9.984v-.288zm21.831-11.04c1.664 0 3.152.24 4.464.72 1.344.48 2.608 1.232 3.792 2.256l-2.736 3.696c-.864-.64-1.696-1.104-2.496-1.392-.8-.288-1.68-.432-2.64-.432-3.808 0-5.712 2.896-5.712 8.688 0 2.944.496 5.072 1.488 6.384.992 1.28 2.4 1.92 4.224 1.92.896 0 1.712-.144 2.448-.432.768-.288 1.664-.752 2.688-1.392l2.736 3.888c-2.4 1.952-5.136 2.928-8.208 2.928-2.432 0-4.544-.528-6.336-1.584-1.792-1.088-3.168-2.624-4.128-4.608-.96-1.984-1.44-4.32-1.44-7.008 0-2.688.48-5.056 1.44-7.104.96-2.08 2.336-3.68 4.128-4.8 1.792-1.152 3.888-1.728 6.288-1.728zm31.898.72V203h-6.144v-9.264h-4.272L430.739 203h-6.672l5.952-10.656c-1.344-.672-2.384-1.568-3.12-2.688-.704-1.152-1.056-2.496-1.056-4.032 0-2.624.96-4.608 2.88-5.952 1.92-1.376 4.672-2.064 8.256-2.064h9.12zm-6.144 12.144v-7.968h-3.072c-3.136 0-4.704 1.296-4.704 3.888 0 1.376.368 2.4 1.104 3.072.736.672 1.904 1.008 3.504 1.008h3.168zm34.018 8.592h3.84v12.24h-4.464l-.816-7.584h-19.056v-25.392h6.144v20.688h8.208v-20.688h6.144v20.736z" fill="#2C3A3E"/><g filter="url(#filter0_d)" fill="#3ABEF7"><path d="M20 21c0-2.7614 2.2386-5 5-5h301c2.761 0 5 2.2386 5 5v32c0 2.7614-2.239 5-5 5H25c-2.7614 0-5-2.2386-5-5V21zM173.08 66.6266c.778.7628 2.023.7628 2.801 0L184.677 58h-20.393l8.796 8.6266z"/></g><path d="M92.58 27.88c1.6667 0 2.9733.5867 3.92 1.76.9467 1.16 1.42 2.9467 1.42 5.36 0 2.3467-.4933 4.1533-1.48 5.42-.9867 1.2533-2.36 1.88-4.12 1.88-.88 0-1.6467-.1333-2.3-.4-.6533-.28-1.24-.6667-1.76-1.16l1.24-1.52c.4267.3333.84.5867 1.24.76.4.16.88.24 1.44.24.9467 0 1.6667-.3467 2.16-1.04.5067-.7067.7867-1.8067.84-3.3H90.2v-1.96h4.98c-.12-2.68-1.0333-4.02-2.74-4.02-.5467 0-1.0267.08-1.44.24-.4133.1467-.8467.4-1.3.76l-1.3-1.52c.6-.4933 1.2267-.8667 1.88-1.12.6533-.2533 1.42-.38 2.3-.38zm16.521 3.54l-2.98 4.9 3.3 5.68h-2.82l-2.58-4.7h-1.14V42h-2.56V31.42h2.56v4.18h1.2l2.46-4.18h2.56zm6.029-.3c1.56 0 2.773.5 3.64 1.5.88.9867 1.32 2.3467 1.32 4.08 0 1.1067-.2 2.0867-.6 2.94-.4.84-.974 1.4933-1.72 1.96-.747.4667-1.634.7-2.66.7-1.56 0-2.78-.4933-3.66-1.48-.88-1-1.32-2.3733-1.32-4.12 0-1.1067.2-2.08.6-2.92.4-.84.973-1.4933 1.72-1.96.76-.4667 1.653-.7 2.68-.7zm0 1.94c-1.534 0-2.3 1.2133-2.3 3.64 0 1.2533.186 2.18.56 2.78.386.5867.96.88 1.72.88s1.326-.3 1.7-.9c.386-.6.58-1.52.58-2.76 0-1.24-.194-2.1533-.58-2.74-.374-.6-.934-.9-1.68-.9zM128.629 42v-4.42h-3.58V42h-2.56V31.42h2.56v4.22h3.58v-4.22h2.56V42h-2.56zm9.958-10.88c1.56 0 2.773.5 3.64 1.5.88.9867 1.32 2.3467 1.32 4.08 0 1.1067-.2 2.0867-.6 2.94-.4.84-.974 1.4933-1.72 1.96-.747.4667-1.634.7-2.66.7-1.56 0-2.78-.4933-3.66-1.48-.88-1-1.32-2.3733-1.32-4.12 0-1.1067.2-2.08.6-2.92.4-.84.973-1.4933 1.72-1.96.76-.4667 1.653-.7 2.68-.7zm0 1.94c-1.534 0-2.3 1.2133-2.3 3.64 0 1.2533.186 2.18.56 2.78.386.5867.96.88 1.72.88s1.326-.3 1.7-.9c.386-.6.58-1.52.58-2.76 0-1.24-.194-2.1533-.58-2.74-.374-.6-.934-.9-1.68-.9zM156.966 42h-2.44l-.34-4.34c-.053-.64-.08-1.3333-.08-2.08 0-.32.014-.9333.04-1.84l-2.02 7.14h-2.22l-1.94-7.14c.04.7333.06 1.4467.06 2.14 0 .4133-.013 1.0067-.04 1.78l-.28 4.34h-2.44l.92-10.58h3.12l1.72 7.16 1.86-7.16h3.14l.94 10.58zm11.218 0h-2.46v-4.24c0-.7733.034-1.5.1-2.18.067-.6933.14-1.2133.22-1.56l-3.94 7.98h-2.74V31.42h2.48v4.24c0 .7333-.04 1.46-.12 2.18-.066.72-.14 1.2333-.22 1.54l3.9-7.96h2.78V42zm11.075-10.58V42h-2.56v-3.86h-1.78l-2.06 3.86h-2.78l2.48-4.44c-.56-.28-.994-.6533-1.3-1.12-.294-.48-.44-1.04-.44-1.68 0-1.0933.4-1.92 1.2-2.48.8-.5733 1.946-.86 3.44-.86h3.8zm-2.56 5.06v-3.32h-1.28c-1.307 0-1.96.54-1.96 1.62 0 .5733.153 1 .46 1.28.306.28.793.42 1.46.42h1.32zm19.754 3.58v5.1h-1.86l-.34-3.16h-6.26l-.34 3.16h-1.86v-5.1h.7c.28-.1867.5-.4133.66-.68.173-.28.327-.7467.46-1.4.147-.6533.267-1.5933.36-2.82l.28-3.74h7.1v8.64h1.1zm-3.56-6.84h-2.4l-.14 1.68c-.093 1.1467-.207 2.0467-.34 2.7-.133.6533-.313 1.1667-.54 1.54-.227.36-.54.6667-.94.92h4.36v-6.84zm9.815-2.1c1.56 0 2.773.5 3.64 1.5.88.9867 1.32 2.3467 1.32 4.08 0 1.1067-.2 2.0867-.6 2.94-.4.84-.974 1.4933-1.72 1.96-.747.4667-1.634.7-2.66.7-1.56 0-2.78-.4933-3.66-1.48-.88-1-1.32-2.3733-1.32-4.12 0-1.1067.2-2.08.6-2.92.4-.84.973-1.4933 1.72-1.96.76-.4667 1.653-.7 2.68-.7zm0 1.94c-1.534 0-2.3 1.2133-2.3 3.64 0 1.2533.186 2.18.56 2.78.386.5867.96.88 1.72.88s1.326-.3 1.7-.9c.386-.6.58-1.52.58-2.76 0-1.24-.194-2.1533-.58-2.74-.374-.6-.934-.9-1.68-.9zm17.919-4.52V42h-2.52V31.12l-3 1.82-1.12-1.72 4.38-2.68h2.26zm6.564-.24c.907 0 1.687.1667 2.34.5.667.3333 1.174.7867 1.52 1.36.347.5733.52 1.2133.52 1.92 0 .76-.166 1.4933-.5 2.2-.32.6933-.86 1.4667-1.62 2.32-.76.8533-1.873 1.98-3.34 3.38h5.76l-.28 2.02h-8.38v-1.88c1.707-1.7333 2.927-3.0133 3.66-3.84.747-.84 1.274-1.5533 1.58-2.14.32-.6.48-1.22.48-1.86 0-.6133-.18-1.0933-.54-1.44-.346-.3467-.813-.52-1.4-.52-.52 0-.98.1133-1.38.34-.386.2133-.793.5733-1.22 1.08l-1.56-1.24c1.134-1.4667 2.587-2.2 4.36-2.2zm13.962.24v1.8l-4.98 11.92-2.34-.76 4.68-10.98h-5.68v-1.98h8.32zm4.886-.24c.907 0 1.687.1667 2.34.5.667.3333 1.173.7867 1.52 1.36.347.5733.52 1.2133.52 1.92 0 .76-.167 1.4933-.5 2.2-.32.6933-.86 1.4667-1.62 2.32-.76.8533-1.873 1.98-3.34 3.38h5.76l-.28 2.02h-8.38v-1.88c1.707-1.7333 2.927-3.0133 3.66-3.84.747-.84 1.273-1.5533 1.58-2.14.32-.6.48-1.22.48-1.86 0-.6133-.18-1.0933-.54-1.44-.347-.3467-.813-.52-1.4-.52-.52 0-.98.1133-1.38.34-.387.2133-.793.5733-1.22 1.08l-1.56-1.24c1.133-1.4667 2.587-2.2 4.36-2.2zm9.884 10.06h3.34v1.46h-3.34V42h-2.54v-2.18h-1.42v-1.46h1.42v-1.32h-1.42v-1.66h1.42v-6.84h3.52c1.693 0 3.013.3667 3.96 1.1.946.72 1.42 1.7667 1.42 3.14 0 1.4533-.48 2.5267-1.44 3.22-.96.6933-2.26 1.04-3.9 1.04h-1.02v1.32zm0-7.98v5h.96c.893 0 1.58-.2 2.06-.6.48-.4.72-1.06.72-1.98 0-1.6133-.927-2.42-2.78-2.42h-.96z" fill="#fff"/><defs><filter id="filter0_d" x="0" y="16" width="351" height="91.1987" filterUnits="userSpaceOnUse" color-interpolation-filters="sRGB"><feFlood flood-opacity="0" result="BackgroundImageFix"/><feColorMatrix in="SourceAlpha" values="0 0 0 0 0 0 0 0 0 0 0 0 0 0 0 0 0 0 127 0"/><feOffset dy="20"/><feGaussianBlur stdDeviation="10"/><feColorMatrix values="0 0 0 0 0 0 0 0 0 0 0 0 0 0 0 0 0 0 0.01 0"/><feBlend in2="BackgroundImageFix" result="effect1_dropShadow"/><feBlend in="SourceGraphic" in2="effect1_dropShadow" result="shape"/></filter></defs></svg>