<svg width="498" height="222" fill="none" xmlns="http://www.w3.org/2000/svg"><path d="M68.6 86.5c13.4 0 23.5 5.2 30.5 15.3 7 10.3 10.5 25 10.5 44 0 19.3-3.5 34.1-10.5 44.4-7 10.3-17.1 15.4-30.5 15.4A34.8 34.8 0 0 1 38 190.3c-6.9-10.4-10.4-25.2-10.4-44.4s3.5-33.9 10.4-44a34.8 34.8 0 0 1 30.6-15.4zm0 16.5c-6.4 0-11.1 3.3-14 9.9a87 87 0 0 0-4.5 33 89 89 0 0 0 4.4 33.3c3 6.6 7.7 9.9 14.1 9.9 6.5 0 11.2-3.3 14.1-9.7 3-6.6 4.5-17.8 4.5-33.5s-1.5-26.7-4.5-33.2c-3-6.4-7.6-9.7-14-9.7zm63 75c4 0 7.2 1.4 10 4 2.7 2.7 4 6 4 9.8 0 3.7-1.3 7-4 9.7-2.8 2.7-6 4-10 4a13.5 13.5 0 0 1-13.6-13.8c0-3.8 1.4-7 4-9.6 2.6-2.7 5.8-4 9.7-4zm88.5-89.4v15.3l-42.4 101.3-19.8-6.4 39.7-93.4h-48.2V88.6H220zM246.7 98.5a8.7 8.7 0 0 1 8 4.8c.8 1.6 1.2 3.5 1.2 5.7a13 13 0 0 1-1.4 6 10.5 10.5 0 0 1-9.7 5.7c-4 0-6.9-1.4-8.8-4.2a20.2 20.2 0 0 1-2.8-11.4c0-3.6.5-6.7 1.5-9.4 1.1-2.8 2.7-4.9 4.7-6.3 2-1.5 4.3-2.3 7-2.3s5 .7 7 2l-2.2 3.9a9 9 0 0 0-4.7-1.3c-2 0-3.7 1-5 2.8a15 15 0 0 0-2 7.5 9 9 0 0 1 7.2-3.5zm-1.9 17.7a4 4 0 0 0 3.6-2c.9-1.2 1.3-3 1.3-5.1 0-2.2-.4-3.8-1.2-4.7-.7-1-1.8-1.4-3.2-1.4-1.1 0-2.2.3-3.2.9-1 .5-1.8 1.3-2.6 2.4.1 3.5.5 6 1.3 7.6a4.2 4.2 0 0 0 4 2.3zm31.5-13.5c4.4 2 6.6 4.8 6.6 8.6 0 1.8-.5 3.4-1.5 4.8s-2.4 2.5-4.2 3.4c-1.8.8-4 1.2-6.3 1.2-2.4 0-4.5-.4-6.2-1.2a10 10 0 0 1-4-3.3c-1-1.4-1.5-3-1.5-4.8 0-3.7 2-6.4 6.1-8.2-3.2-1.7-4.8-4.3-4.8-7.6 0-1.7.4-3.2 1.4-4.4a9 9 0 0 1 3.8-3c1.6-.7 3.4-1 5.3-1 2 0 3.8.2 5.4.9 1.6.6 2.8 1.6 3.7 2.8 1 1.3 1.5 2.7 1.5 4.5 0 3-1.8 5.4-5.3 7.3zM271 91.4a5 5 0 0 0-3.4 1.1c-.8.8-1.2 1.8-1.2 3.2 0 1.3.4 2.3 1.2 3 .7.8 2 1.5 3.7 2.1l.9.3a7.8 7.8 0 0 0 2.6-2.4c.6-.8.8-1.9.8-3a4 4 0 0 0-1.2-3.1c-.8-.8-1.9-1.2-3.4-1.2zm0 24.8a6 6 0 0 0 4.2-1.4c1-.9 1.4-2 1.4-3.5s-.4-2.6-1.3-3.4a13 13 0 0 0-4.6-2.5l-1.5-.6a6.8 6.8 0 0 0-3.8 6.4c0 1.6.5 2.8 1.5 3.7 1 .8 2.4 1.3 4.1 1.3zM255.4 193.7a9 9 0 0 1-2.3 6.3 11.3 11.3 0 0 1-6.5 3.2v7.4H242v-7.1c-4-.3-7.4-1.7-10-4.3l3.2-3.6c2.3 2.1 5 3.2 8 3.2 1.9 0 3.3-.4 4.4-1.2 1-.9 1.6-2 1.6-3.5 0-1-.2-1.7-.6-2.3-.3-.6-1-1.2-1.9-1.7-.8-.4-2.1-1-3.8-1.5-3.5-1-6-2.2-7.4-3.7a7.9 7.9 0 0 1-2.3-5.9c0-2.3.8-4.2 2.4-5.8 1.6-1.5 3.8-2.5 6.4-2.8v-7.1h4.7v7c1.6.3 3 .7 4.3 1.4a14 14 0 0 1 3.6 2.5l-3.1 3.5c-1-1-2.2-1.7-3.3-2.2-1.2-.4-2.4-.6-3.8-.6a6 6 0 0 0-3.6 1c-.9.6-1.3 1.5-1.3 2.8 0 .8.2 1.4.5 2 .4.5 1 1 2 1.5 1 .4 2.3 1 4 1.5 3.2 1 5.6 2.2 7.2 3.7 1.5 1.4 2.3 3.6 2.3 6.3zm30.4-16.8c3.2 0 5.6 1.2 7.1 3.5 1.6 2.3 2.3 5.6 2.3 9.8 0 2.7-.4 5-1.2 7-.7 2-1.9 3.6-3.4 4.8a8.6 8.6 0 0 1-5.4 1.7 8 8 0 0 1-6.4-2.8v11.9l-6.1.7v-35.9h5.3l.4 3.1a10 10 0 0 1 3.4-2.9c1.3-.6 2.6-1 4-1zm-2.3 22.1c3.5 0 5.3-2.9 5.3-8.7a14 14 0 0 0-1.2-6.7c-.8-1.4-2-2.1-3.6-2.1-1 0-2 .3-2.9 1-.9.6-1.7 1.4-2.3 2.5v11.4a5.4 5.4 0 0 0 4.7 2.6zm38.6-9.3l-.2 2.5H306c.2 2.5.8 4.2 2 5.3a6 6 0 0 0 4.3 1.6c1 0 2.1-.2 3.1-.6 1-.3 2-1 3.2-1.7l2.5 3.5c-2.8 2.3-6 3.4-9.4 3.4-3.8 0-6.8-1.2-9-3.5-2-2.4-3-5.6-3-9.7 0-2.6.4-5 1.3-7s2.2-3.7 3.9-4.8c1.7-1.2 3.7-1.8 6-1.8 3.6 0 6.3 1.1 8.3 3.4 2 2.2 2.9 5.4 2.9 9.4zm-6.1-1.8c0-4.4-1.7-6.6-5-6.6-1.5 0-2.6.5-3.5 1.6-.8 1.1-1.3 2.9-1.5 5.3h10v-.3zm24.1-11c1 0 1.8.1 2.6.4l-1 6c-.8-.3-1.6-.4-2.3-.4-1.5 0-2.7.6-3.6 1.7-.9 1-1.5 2.7-2 4.9V203h-6.2v-25.4h5.3l.6 5a9 9 0 0 1 2.6-4.2 6 6 0 0 1 4-1.5zm45.3 0c2 0 3.7.7 5 2.1a8.2 8.2 0 0 1 1.7 5.6V203H386v-17.4c0-2.7-1-4.1-2.8-4.1-1 0-1.8.3-2.6 1-.7.6-1.4 1.5-2.2 2.8V203h-6.1v-17.4c0-2.7-1-4.1-2.8-4.1-1 0-2 .3-2.7 1-.7.6-1.4 1.5-2.2 2.8V203h-6.1v-25.4h5.3l.5 3.3c2-2.7 4.4-4 7.3-4a6.3 6.3 0 0 1 6.2 4.3 12 12 0 0 1 3.3-3.2 8.2 8.2 0 0 1 4.3-1.1zm24.2 0a11 11 0 0 1 8.8 3.6c2 2.4 3.1 5.6 3.1 9.8 0 2.6-.4 5-1.4 7a11 11 0 0 1-10.5 6.4c-3.8 0-6.7-1.2-8.8-3.5a14.5 14.5 0 0 1-3.2-10c0-2.6.5-5 1.5-7a11 11 0 0 1 10.5-6.3zm0 4.6c-3.6 0-5.5 3-5.5 8.8 0 3 .5 5.2 1.4 6.7.9 1.4 2.3 2 4 2 2 0 3.3-.7 4.2-2.1.9-1.4 1.4-3.6 1.4-6.6 0-3-.5-5.2-1.4-6.6a4.4 4.4 0 0 0-4-2.2zm31.2-4.6c2.3 0 4 .7 5.3 2 1.3 1.4 2 3.3 2 5.7V203h-6.2v-17.4c0-1.5-.3-2.6-.8-3.2-.5-.6-1.3-.9-2.3-.9-1 0-2 .3-2.9 1a11 11 0 0 0-2.5 2.8V203h-6v-25.4h5.2l.5 3.3c2-2.7 4.7-4 7.7-4zm29 24.9a11.8 11.8 0 0 1-6.4 2c-2.5-.1-4.4-.8-5.8-2.2-1.2-1.4-1.9-3.5-1.9-6.2V182h-4v-4.4h4V172l6.2-.7v6.3h5.9l-.7 4.4H462v13.3c0 1.2.2 2.1.6 2.7.4.5 1.1.8 2 .8 1 0 2-.3 3-1l2.2 4zm17-25c2.2 0 4 .8 5.2 2.2a8 8 0 0 1 2 5.6V203h-6.2v-17.4c0-1.5-.3-2.6-.8-3.2-.5-.6-1.3-.9-2.3-.9-1 0-2 .3-2.9 1-.8.6-1.7 1.6-2.5 2.8V203h-6.1v-35.5l6.1-.6v13.7c2-2.5 4.6-3.7 7.4-3.7z" fill="#2C3A3E"/><path d="M20 21a5 5 0 0 1 5-5h301a5 5 0 0 1 5 5v32a5 5 0 0 1-5 5H138a5 5 0 0 0-3.6 1.4l-7.3 7.2a2 2 0 0 1-2.8 0l-7.3-7.2a5 5 0 0 0-3.5-1.4H25a5 5 0 0 1-5-5V21z" fill="#3ABEF7" filter="url(#filter0_d)"/><path d="M89.3 29.9c1 0 1.8.1 2.5.4.7.3 1.4.7 2 1.3L92.5 33 91 32l-1.6-.2c-.6 0-1.1.1-1.5.4-.4.3-.6.7-.6 1.2 0 .4 0 .7.2.9l.9.6 1.7.7c1.4.4 2.4 1 3.1 1.6.7.6 1 1.5 1 2.8 0 .8-.2 1.5-.6 2.2-.4.6-1 1.1-1.8 1.5-.8.3-1.7.5-2.8.5a6.8 6.8 0 0 1-5-1.9l1.4-1.5a5.1 5.1 0 0 0 3.6 1.4 3 3 0 0 0 1.8-.6c.4-.3.7-.8.7-1.5 0-.4-.1-.7-.3-1a2 2 0 0 0-.8-.7l-1.7-.6c-1.4-.5-2.5-1-3.1-1.7-.7-.6-1-1.5-1-2.5 0-.8.2-1.4.6-2 .4-.6 1-1 1.6-1.3a6 6 0 0 1 2.5-.5zm15 11.3l.1 1 .6.4-.5 1.7c-.6 0-1.1-.2-1.5-.5-.4-.2-.6-.6-.8-1-.4.5-.9.9-1.4 1.1-.5.3-1.1.4-1.8.4-1 0-1.9-.3-2.5-.9-.6-.6-1-1.4-1-2.4 0-1.1.5-2 1.3-2.6.9-.6 2-.9 3.6-.9h1.3v-.6c0-.7-.1-1.2-.5-1.4-.3-.3-.8-.4-1.5-.4a9 9 0 0 0-2.8.5l-.6-1.7c1.4-.5 2.6-.8 3.9-.8 2.7 0 4 1.2 4 3.7v4.4zm-4.6 1.2c.8 0 1.5-.4 2-1.3V39h-1c-1.7 0-2.5.6-2.5 1.8 0 .5.1 1 .4 1.2.2.3.6.4 1 .4zm15.8-9L112.1 44h-3l-3.6-10.6h2.8l2.3 8.5 2.3-8.5h2.6zm4.2 0V44H117V33.4h2.6zm-1.3-5.3c.5 0 .8.1 1.1.4.3.3.5.7.5 1.1 0 .5-.2.8-.5 1.1-.3.3-.6.5-1.1.5-.5 0-.9-.2-1.2-.5-.3-.3-.4-.6-.4-1 0-.5.1-.9.4-1.2.3-.3.7-.4 1.2-.4zm10 5c1 0 1.7.3 2.2.9.5.5.8 1.3.8 2.3V44h-2.6v-7.3c0-.6 0-1-.3-1.3-.2-.2-.5-.4-1-.4a2 2 0 0 0-1.2.5l-1 1.1V44h-2.5V33.4h2.2l.2 1.4a4 4 0 0 1 3.2-1.7zm15.2.9c-.7.2-1.7.3-3 .3.6.3 1 .7 1.4 1.1.3.5.4 1 .4 1.7a3.3 3.3 0 0 1-2 3c-.6.4-1.4.5-2.2.5l-1.3-.1a1 1 0 0 0-.4.7c0 .5.4.8 1.3.8h1.6a5 5 0 0 1 2 .4c.6.2 1 .6 1.4 1 .3.5.4 1 .4 1.6 0 1-.4 1.9-1.3 2.5-1 .6-2.2.9-4 .9-1.2 0-2.1-.2-2.8-.4-.7-.3-1.2-.6-1.5-1.1-.3-.5-.5-1.1-.5-1.9h2.3l.2 1 .8.4 1.6.2c1 0 1.7-.2 2-.4.5-.2.7-.6.7-1s-.2-.8-.5-1c-.3-.2-.8-.3-1.3-.3h-1.6c-1 0-1.8-.2-2.3-.6-.5-.4-.8-.9-.8-1.4 0-.4.1-.8.4-1.1.2-.4.5-.7.9-.9-.7-.3-1.1-.7-1.4-1.2-.3-.5-.5-1.1-.5-1.8a3.6 3.6 0 0 1 2.1-3.3c.7-.3 1.4-.5 2.3-.5 1.1 0 2 0 2.7-.2.7-.2 1.4-.5 2.2-1l.7 2zm-5.6.9c-.5 0-1 .1-1.3.5-.3.4-.5.9-.5 1.5s.2 1.1.5 1.5c.3.4.8.6 1.4.6.6 0 1-.2 1.4-.6.3-.4.5-.9.5-1.5 0-1.4-.7-2-2-2zm20.6 9.1h-2.2l-.2-1.5c-.4.6-.8 1-1.4 1.4-.5.3-1.1.4-1.8.4-1 0-1.7-.3-2.2-.9-.5-.5-.8-1.4-.8-2.4v-7.6h2.6v7.3c0 .6 0 1 .3 1.3.2.2.5.4 1 .4.8 0 1.5-.5 2.1-1.5v-7.5h2.6V44zm8.5-10.9c1.4 0 2.4.5 3 1.5.6 1 1 2.3 1 4 0 1.2-.2 2.1-.5 3-.4.8-.8 1.5-1.5 2-.6.5-1.3.7-2.2.7-1.1 0-2-.4-2.7-1.2v5l-2.5.3v-15h2.2l.1 1.3c.5-.5 1-1 1.5-1.2.5-.2 1-.4 1.6-.4zm-1 9.2c1.5 0 2.3-1.2 2.3-3.6 0-1.3-.2-2.2-.5-2.8-.3-.6-.8-.9-1.5-.9a2 2 0 0 0-1.2.4l-1 1v4.8c.5.8 1.2 1.1 2 1.1zm18.5 1.2a5 5 0 0 1-2.7.8c-1 0-1.8-.3-2.3-.9-.5-.6-.8-1.4-.8-2.6v-5.5h-1.7v-1.9h1.7v-2.3l2.6-.3v2.6h2.4l-.2 1.9h-2.2v5.5c0 .5 0 .9.2 1.1.2.2.5.3.9.3s.8 0 1.2-.3l1 1.6zm5.5-10.4c1.5 0 2.7.5 3.6 1.5a6 6 0 0 1 1.3 4.1c0 1.1-.2 2-.6 3a4.6 4.6 0 0 1-4.4 2.6c-1.5 0-2.7-.5-3.6-1.5a6 6 0 0 1-1.3-4.1c0-1.1.2-2 .6-3a4.6 4.6 0 0 1 4.4-2.6zm0 2c-1.6 0-2.3 1.2-2.3 3.6 0 1.3.2 2.2.5 2.8.4.6 1 .9 1.7.9.8 0 1.4-.3 1.7-1 .4-.5.6-1.5.6-2.7a5 5 0 0 0-.6-2.7c-.3-.6-.9-1-1.6-1zm21 5c0 1-.4 2-1 2.6-.6.7-1.5 1.2-2.7 1.4v3h-2v-2.9a6.3 6.3 0 0 1-4.2-1.8l1.4-1.5c1 1 2 1.4 3.4 1.4.7 0 1.3-.2 1.7-.6.5-.3.7-.8.7-1.4 0-.4 0-.7-.2-1a2 2 0 0 0-.8-.7l-1.6-.6c-1.4-.4-2.5-1-3-1.6-.7-.6-1-1.4-1-2.4s.3-1.8 1-2.4c.6-.7 1.5-1 2.6-1.2v-3h2v3c.7 0 1.3.3 1.8.5l1.5 1-1.3 1.5c-.5-.4-1-.7-1.4-.8-.5-.2-1-.3-1.6-.3-.6 0-1 .1-1.5.4-.3.3-.5.7-.5 1.2 0 .3 0 .6.2.8l.8.6 1.7.6c1.3.5 2.3 1 3 1.6.6.6 1 1.5 1 2.6zm5-9.8c1 0 1.8.2 2.4.5.7.3 1.2.8 1.5 1.4.4.5.6 1.2.6 1.9s-.2 1.5-.5 2.2l-1.7 2.3c-.7.9-1.8 2-3.3 3.4h5.8l-.3 2h-8.4v-1.9a115.9 115.9 0 0 0 5.2-6c.4-.6.5-1.2.5-1.8 0-.6-.2-1.1-.5-1.5-.4-.3-.8-.5-1.4-.5-.5 0-1 .1-1.4.4-.4.2-.8.5-1.2 1l-1.6-1.2a5.3 5.3 0 0 1 4.4-2.2zm12.2.2V44h-2.5V33.1l-3 1.8-1.2-1.7 4.4-2.7h2.3zm6.5-.2c1 0 1.7.2 2.3.5.7.3 1.2.7 1.5 1.2.3.5.5 1 .5 1.7a3 3 0 0 1-.7 2c-.5.6-1.1 1-2 1.2 1 0 1.7.4 2.3 1 .5.5.8 1.3.8 2.3 0 .7-.2 1.4-.6 2-.4.7-1 1.2-1.7 1.6-.7.3-1.6.5-2.6.5-1.8 0-3.2-.6-4.3-2l1.4-1.3 1.3 1 1.5.3c.7 0 1.3-.2 1.7-.6.5-.4.7-1 .7-1.7s-.2-1.3-.6-1.6c-.4-.4-1-.5-1.8-.5h-1l.2-1.8h.7c.7 0 1.2-.2 1.6-.6.4-.3.6-.8.6-1.5 0-.5-.2-1-.6-1.3a2 2 0 0 0-1.4-.4c-.5 0-1 0-1.4.3-.4.1-.9.4-1.3.8l-1.3-1.4a6 6 0 0 1 4.2-1.7zm8 10.8c.4 0 .8.1 1.1.4.3.3.5.7.5 1.2 0 .4-.2.8-.5 1.1-.3.3-.7.5-1.1.5-.5 0-.9-.2-1.2-.5-.3-.3-.4-.7-.4-1.1 0-.5.1-.9.4-1.2.3-.3.7-.4 1.2-.4zm7.9-10.8a4 4 0 0 1 3.5 1.8c.9 1.2 1.3 3 1.3 5.2s-.4 4-1.3 5.2a4 4 0 0 1-3.5 1.8c-1.6 0-2.8-.6-3.6-1.8-.9-1.2-1.3-3-1.3-5.2 0-2.3.4-4 1.3-5.2.8-1.2 2-1.8 3.6-1.8zm0 2c-.8 0-1.4.3-1.7 1.1-.4.8-.5 2-.5 3.9 0 1.8.1 3.1.5 3.9.3.8.9 1.2 1.7 1.2.7 0 1.3-.4 1.6-1.2.4-.8.5-2 .5-4 0-1.8-.1-3-.5-3.8-.3-.8-.9-1.2-1.6-1.2zm10.1-2c1 0 1.7.2 2.4.5.6.3 1.2.8 1.5 1.4.3.5.5 1.2.5 1.9s-.1 1.5-.5 2.2c-.3.7-.8 1.4-1.6 2.3l-3.3 3.4h5.7l-.3 2H257v-1.9a115.9 115.9 0 0 0 5.2-6c.3-.6.5-1.2.5-1.8 0-.6-.2-1.1-.6-1.5-.3-.3-.8-.5-1.4-.5-.5 0-1 .1-1.3.4l-1.3 1-1.5-1.2a5.3 5.3 0 0 1 4.3-2.2z" fill="#fff"/><defs><filter id="filter0_d" x="0" y="16" width="351" height="91.2" filterUnits="userSpaceOnUse" color-interpolation-filters="sRGB"><feFlood flood-opacity="0" result="BackgroundImageFix"/><feColorMatrix in="SourceAlpha" values="0 0 0 0 0 0 0 0 0 0 0 0 0 0 0 0 0 0 127 0"/><feOffset dy="20"/><feGaussianBlur stdDeviation="10"/><feColorMatrix values="0 0 0 0 0 0 0 0 0 0 0 0 0 0 0 0 0 0 0.01 0"/><feBlend in2="BackgroundImageFix" result="effect1_dropShadow"/><feBlend in="SourceGraphic" in2="effect1_dropShadow" result="shape"/></filter></defs></svg>