<svg width="231" height="270" fill="none" xmlns="http://www.w3.org/2000/svg"><path fill-rule="evenodd" clip-rule="evenodd" d="M119.757 84.5074c4.593-5.6757 7.344-12.9031 7.344-20.773 0-18.2513-14.795-33.0469-33.0467-33.0469-18.2512 0-33.0468 14.7956-33.0468 33.0469 0 7.8699 2.7509 15.0973 7.3437 20.773V63.6705c0-14.1738 11.5077-25.6393 25.7031-25.6393 14.1667 0 25.7027 11.4791 25.7027 25.6393v20.8369zm18.351 151.8046c30.424.001 55.087-26.328 55.087-55.078v-44.05c0-6.09-4.889-11.028-11.016-11.028-6.083 0-11.015 4.929-11.015 11.028v3.66h-7.344v-18.312c0-6.11-4.889-11.063-11.016-11.063-6.083 0-11.015 4.931-11.015 11.063V133.5h-7.344v-18.312c0-6.11-4.889-11.063-11.016-11.063-6.083 0-11.015 4.932-11.015 11.063v25.656h-7.344V63.7729c0-6.1051-4.889-11.0541-11.0157-11.0541-6.0837 0-11.0156 4.8992-11.0156 11.0541v82.9461c-15.1164-16.16-35.0177-33.935-43.1737-25.735-7.9839 8.027 12.5897 30.146 41.3185 78.486 12.9442 21.78 29.3225 36.839 56.9245 36.842zm62.431-55.078c0 34.475-27.948 62.422-62.422 62.422-22.861 0-46.9869-10.667-63.591-40.917-23.9663-43.664-54.6152-72.3-40.0213-86.894 10.4402-10.44 26.8321-.424 41.1903 13.005V63.7961c0-10.2298 8.2197-18.4211 18.3593-18.4211 10.2107 0 18.3597 8.2474 18.3597 18.4211v36.6449c3.068-2.2989 6.882-3.6598 11.015-3.6598 7.95 0 14.65 4.9748 17.227 11.9568 3.237-2.865 7.49-4.613 12.148-4.613 10.211 0 18.36 8.212 18.36 18.342v.099c3.068-2.296 6.882-3.649 11.015-3.649 10.211 0 18.36 8.22 18.36 18.36v43.957z" fill="#fff" filter="url(#filter0_f)"/><path fill-rule="evenodd" clip-rule="evenodd" d="M119.757 84.5074c4.593-5.6757 7.344-12.9031 7.344-20.773 0-18.2513-14.795-33.0469-33.0467-33.0469-18.2512 0-33.0468 14.7956-33.0468 33.0469 0 7.8699 2.7509 15.0973 7.3437 20.773V63.6705c0-14.1738 11.5077-25.6393 25.7031-25.6393 14.1667 0 25.7027 11.4791 25.7027 25.6393v20.8369zm18.351 151.8046c30.424.001 55.087-26.328 55.087-55.078 0 0 0 16.988 0 0v-44.05c0-6.09-4.889-11.028-11.016-11.028-6.083 0-11.015 4.929-11.015 11.028v3.66h-7.344v-18.312c0-6.11-4.889-11.063-11.016-11.063-6.083 0-11.015 4.931-11.015 11.063V133.5h-7.344v-18.312c0-6.11-4.889-11.063-11.016-11.063-6.083 0-11.015 4.932-11.015 11.063v25.656h-7.344V63.7729c0-6.1051-4.889-11.0541-11.0157-11.0541-6.0837 0-11.0156 4.8992-11.0156 11.0541v82.9461c-15.1164-16.16-35.0177-33.935-43.1737-25.735-7.9839 8.027 12.5897 30.146 41.3185 78.486 12.9442 21.78 29.3225 36.839 56.9245 36.842zm62.431-55.078c0 34.475-27.948 62.422-62.422 62.422-22.861 0-46.9869-10.667-63.591-40.917-23.9663-43.664-54.6152-72.3-40.0213-86.894 10.4402-10.44 26.8321-.424 41.1903 13.005V63.7961c0-10.2298 8.2197-18.4211 18.3593-18.4211 10.2107 0 18.3597 8.2474 18.3597 18.4211v36.6449c3.068-2.2989 6.882-3.6598 11.015-3.6598 7.95 0 14.65 4.9748 17.227 11.9568 3.237-2.865 7.49-4.613 12.148-4.613 10.211 0 18.36 8.212 18.36 18.342v.099c3.068-2.296 6.882-3.649 11.015-3.649 10.211 0 18.36 8.22 18.36 18.36v43.957z" fill="#2C3A3E" filter="url(#filter1_d)"/><defs><filter id="filter0_f" x=".71875" y=".6875" width="229.82" height="272.969" filterUnits="userSpaceOnUse" color-interpolation-filters="sRGB"><feFlood flood-opacity="0" result="BackgroundImageFix"/><feBlend in="SourceGraphic" in2="BackgroundImageFix" result="shape"/><feGaussianBlur stdDeviation="15" result="effect1_foregroundBlur"/></filter><filter id="filter1_d" x="10.7188" y="10.6875" width="209.82" height="252.969" filterUnits="userSpaceOnUse" color-interpolation-filters="sRGB"><feFlood flood-opacity="0" result="BackgroundImageFix"/><feColorMatrix in="SourceAlpha" values="0 0 0 0 0 0 0 0 0 0 0 0 0 0 0 0 0 0 127 0"/><feOffset/><feGaussianBlur stdDeviation="10"/><feColorMatrix values="0 0 0 0 1 0 0 0 0 1 0 0 0 0 1 0 0 0 0.25 0"/><feBlend in2="BackgroundImageFix" result="effect1_dropShadow"/><feBlend in="SourceGraphic" in2="effect1_dropShadow" result="shape"/></filter></defs></svg>